<svg xmlns="http://www.w3.org/2000/svg" xmlns:xlink="http://www.w3.org/1999/xlink" class="httpgd" width="1037.00" height="800.00" viewBox="0 0 829.60 640.00">
<defs>
  <style type='text/css'><![CDATA[
    .httpgd line, .httpgd polyline, .httpgd polygon, .httpgd path, .httpgd rect, .httpgd circle {
      fill: none;
      stroke: #000000;
      stroke-linecap: round;
      stroke-linejoin: round;
      stroke-miterlimit: 10.00;
    }
  ]]></style>
<clipPath id="c0"><rect x="0.00" y="0.00" width="829.60" height="640.00"/></clipPath>
<clipPath id="c1"><rect x="59.04" y="59.04" width="740.32" height="507.52"/></clipPath>
<clipPath id="c2"><rect x="0.00" y="0.00" width="829.60" height="640.00"/></clipPath>
</defs>
<rect width="100%" height="100%" style="stroke: none;fill: #FFFFFF;"/>
<g clip-path="url(#c0)">
</g><g clip-path="url(#c1)">
<polygon points="292.10,473.37 566.30,473.37 566.30,359.24 292.10,359.24" style="stroke-width: 0.75;stroke: none;fill: #8C0000;" />
<line x1="292.10" y1="427.16" x2="566.30" y2="427.16" style="stroke-width: 2.25;stroke-linecap: butt;"/>
<line x1="429.20" y1="547.76" x2="429.20" y2="473.37" style="stroke-width: 0.75; stroke-dasharray: 4.00, 4.00;"/>
<line x1="429.20" y1="196.59" x2="429.20" y2="359.24" style="stroke-width: 0.75; stroke-dasharray: 4.00, 4.00;"/>
<line x1="360.65" y1="547.76" x2="497.75" y2="547.76" style="stroke-width: 0.75;"/>
<line x1="360.65" y1="196.59" x2="497.75" y2="196.59" style="stroke-width: 0.75;"/>
<polygon points="292.10,473.37 566.30,473.37 566.30,359.24 292.10,359.24" style="stroke-width: 0.75;" />
<circle cx="429.20" cy="83.38" r="2.70" style="stroke-width: 0.75;"/>
<circle cx="429.20" cy="142.06" r="2.70" style="stroke-width: 0.75;"/>
<circle cx="429.20" cy="77.84" r="2.70" style="stroke-width: 0.75;"/>
<circle cx="429.20" cy="173.95" r="2.70" style="stroke-width: 0.75;"/>
<circle cx="429.20" cy="104.18" r="2.70" style="stroke-width: 0.75;"/>
<circle cx="429.20" cy="170.71" r="2.70" style="stroke-width: 0.75;"/>
<circle cx="429.20" cy="161.93" r="2.70" style="stroke-width: 0.75;"/>
<circle cx="429.20" cy="184.58" r="2.70" style="stroke-width: 0.75;"/>
<circle cx="429.20" cy="177.64" r="2.70" style="stroke-width: 0.75;"/>
<circle cx="429.20" cy="83.38" r="2.70" style="stroke-width: 0.75;"/>
<circle cx="429.20" cy="142.06" r="2.70" style="stroke-width: 0.75;"/>
<circle cx="429.20" cy="77.84" r="2.70" style="stroke-width: 0.75;"/>
<circle cx="429.20" cy="173.95" r="2.70" style="stroke-width: 0.75;"/>
<circle cx="429.20" cy="104.18" r="2.70" style="stroke-width: 0.75;"/>
<circle cx="429.20" cy="170.71" r="2.70" style="stroke-width: 0.75;"/>
<circle cx="429.20" cy="161.93" r="2.70" style="stroke-width: 0.75;"/>
<circle cx="429.20" cy="184.58" r="2.70" style="stroke-width: 0.75;"/>
<circle cx="429.20" cy="177.64" r="2.70" style="stroke-width: 0.75;"/>
<circle cx="429.20" cy="83.38" r="2.70" style="stroke-width: 0.75;"/>
<circle cx="429.20" cy="142.06" r="2.70" style="stroke-width: 0.75;"/>
<circle cx="429.20" cy="77.84" r="2.70" style="stroke-width: 0.75;"/>
<circle cx="429.20" cy="173.95" r="2.70" style="stroke-width: 0.75;"/>
<circle cx="429.20" cy="104.18" r="2.70" style="stroke-width: 0.75;"/>
<circle cx="429.20" cy="170.71" r="2.70" style="stroke-width: 0.75;"/>
<circle cx="429.20" cy="161.93" r="2.70" style="stroke-width: 0.75;"/>
<circle cx="429.20" cy="184.58" r="2.70" style="stroke-width: 0.75;"/>
<circle cx="429.20" cy="177.64" r="2.70" style="stroke-width: 0.75;"/>
<circle cx="429.20" cy="83.38" r="2.70" style="stroke-width: 0.75;"/>
<circle cx="429.20" cy="142.06" r="2.70" style="stroke-width: 0.75;"/>
<circle cx="429.20" cy="77.84" r="2.70" style="stroke-width: 0.75;"/>
<circle cx="429.20" cy="173.95" r="2.70" style="stroke-width: 0.75;"/>
<circle cx="429.20" cy="104.18" r="2.70" style="stroke-width: 0.75;"/>
<circle cx="429.20" cy="170.71" r="2.70" style="stroke-width: 0.75;"/>
<circle cx="429.20" cy="161.93" r="2.70" style="stroke-width: 0.75;"/>
<circle cx="429.20" cy="184.58" r="2.70" style="stroke-width: 0.75;"/>
<circle cx="429.20" cy="177.64" r="2.70" style="stroke-width: 0.75;"/>
<circle cx="429.20" cy="83.38" r="2.70" style="stroke-width: 0.75;"/>
<circle cx="429.20" cy="142.06" r="2.70" style="stroke-width: 0.75;"/>
<circle cx="429.20" cy="77.84" r="2.70" style="stroke-width: 0.75;"/>
<circle cx="429.20" cy="173.95" r="2.70" style="stroke-width: 0.75;"/>
<circle cx="429.20" cy="104.18" r="2.70" style="stroke-width: 0.75;"/>
<circle cx="429.20" cy="170.71" r="2.70" style="stroke-width: 0.75;"/>
<circle cx="429.20" cy="161.93" r="2.70" style="stroke-width: 0.75;"/>
<circle cx="429.20" cy="184.58" r="2.70" style="stroke-width: 0.75;"/>
<circle cx="429.20" cy="177.64" r="2.70" style="stroke-width: 0.75;"/>
<circle cx="429.20" cy="83.38" r="2.70" style="stroke-width: 0.75;"/>
<circle cx="429.20" cy="142.06" r="2.70" style="stroke-width: 0.75;"/>
<circle cx="429.20" cy="77.84" r="2.70" style="stroke-width: 0.75;"/>
<circle cx="429.20" cy="173.95" r="2.70" style="stroke-width: 0.75;"/>
<circle cx="429.20" cy="104.18" r="2.70" style="stroke-width: 0.75;"/>
<circle cx="429.20" cy="170.71" r="2.70" style="stroke-width: 0.75;"/>
<circle cx="429.20" cy="161.93" r="2.70" style="stroke-width: 0.75;"/>
<circle cx="429.20" cy="184.58" r="2.70" style="stroke-width: 0.75;"/>
<circle cx="429.20" cy="177.64" r="2.70" style="stroke-width: 0.75;"/>
<circle cx="429.20" cy="83.38" r="2.70" style="stroke-width: 0.75;"/>
<circle cx="429.20" cy="142.06" r="2.70" style="stroke-width: 0.75;"/>
<circle cx="429.20" cy="77.84" r="2.70" style="stroke-width: 0.75;"/>
<circle cx="429.20" cy="173.95" r="2.70" style="stroke-width: 0.75;"/>
<circle cx="429.20" cy="104.18" r="2.70" style="stroke-width: 0.75;"/>
<circle cx="429.20" cy="170.71" r="2.70" style="stroke-width: 0.75;"/>
<circle cx="429.20" cy="161.93" r="2.70" style="stroke-width: 0.75;"/>
<circle cx="429.20" cy="184.58" r="2.70" style="stroke-width: 0.75;"/>
<circle cx="429.20" cy="177.64" r="2.70" style="stroke-width: 0.75;"/>
<circle cx="429.20" cy="83.38" r="2.70" style="stroke-width: 0.75;"/>
<circle cx="429.20" cy="142.06" r="2.70" style="stroke-width: 0.75;"/>
<circle cx="429.20" cy="77.84" r="2.70" style="stroke-width: 0.75;"/>
<circle cx="429.20" cy="173.95" r="2.70" style="stroke-width: 0.75;"/>
<circle cx="429.20" cy="104.18" r="2.70" style="stroke-width: 0.75;"/>
<circle cx="429.20" cy="170.71" r="2.70" style="stroke-width: 0.75;"/>
<circle cx="429.20" cy="161.93" r="2.70" style="stroke-width: 0.75;"/>
<circle cx="429.20" cy="184.58" r="2.70" style="stroke-width: 0.75;"/>
<circle cx="429.20" cy="177.64" r="2.70" style="stroke-width: 0.75;"/>
<circle cx="429.20" cy="83.38" r="2.70" style="stroke-width: 0.75;"/>
<circle cx="429.20" cy="142.06" r="2.70" style="stroke-width: 0.75;"/>
<circle cx="429.20" cy="77.84" r="2.70" style="stroke-width: 0.75;"/>
<circle cx="429.20" cy="173.95" r="2.70" style="stroke-width: 0.75;"/>
<circle cx="429.20" cy="104.18" r="2.70" style="stroke-width: 0.75;"/>
<circle cx="429.20" cy="170.71" r="2.70" style="stroke-width: 0.75;"/>
<circle cx="429.20" cy="161.93" r="2.70" style="stroke-width: 0.75;"/>
<circle cx="429.20" cy="184.58" r="2.70" style="stroke-width: 0.75;"/>
<circle cx="429.20" cy="177.64" r="2.70" style="stroke-width: 0.75;"/>
</g><g clip-path="url(#c2)">
<line x1="59.04" y1="550.07" x2="59.04" y2="88.00" style="stroke-width: 0.75;"/>
<line x1="59.04" y1="550.07" x2="51.84" y2="550.07" style="stroke-width: 0.75;"/>
<line x1="59.04" y1="457.66" x2="51.84" y2="457.66" style="stroke-width: 0.75;"/>
<line x1="59.04" y1="365.25" x2="51.84" y2="365.25" style="stroke-width: 0.75;"/>
<line x1="59.04" y1="272.83" x2="51.84" y2="272.83" style="stroke-width: 0.75;"/>
<line x1="59.04" y1="180.42" x2="51.84" y2="180.42" style="stroke-width: 0.75;"/>
<line x1="59.04" y1="88.00" x2="51.84" y2="88.00" style="stroke-width: 0.75;"/>
<g><text transform="translate(41.76,550.07) rotate(-90.00)" text-anchor="middle" style="font-family: Arial;font-size: 12.00px;" textLength="6.67px" lengthAdjust="spacingAndGlyphs">0</text></g>
<g><text transform="translate(41.76,457.66) rotate(-90.00)" text-anchor="middle" style="font-family: Arial;font-size: 12.00px;" textLength="20.02px" lengthAdjust="spacingAndGlyphs">200</text></g>
<g><text transform="translate(41.76,365.25) rotate(-90.00)" text-anchor="middle" style="font-family: Arial;font-size: 12.00px;" textLength="20.02px" lengthAdjust="spacingAndGlyphs">400</text></g>
<g><text transform="translate(41.76,272.83) rotate(-90.00)" text-anchor="middle" style="font-family: Arial;font-size: 12.00px;" textLength="20.02px" lengthAdjust="spacingAndGlyphs">600</text></g>
<g><text transform="translate(41.76,180.42) rotate(-90.00)" text-anchor="middle" style="font-family: Arial;font-size: 12.00px;" textLength="20.02px" lengthAdjust="spacingAndGlyphs">800</text></g>
<g><text transform="translate(41.76,88.00) rotate(-90.00)" text-anchor="middle" style="font-family: Arial;font-size: 12.00px;" textLength="26.70px" lengthAdjust="spacingAndGlyphs">1000</text></g>
<g><text x="429.20" y="34.70" text-anchor="middle" style="font-family: Arial;font-size: 14.40px;font-weight: bold;" textLength="103.13px" lengthAdjust="spacingAndGlyphs">boxplot of time</text></g>
<polygon points="59.04,566.56 799.36,566.56 799.36,59.04 59.04,59.04" style="stroke-width: 0.75;" />
</g>
</svg>