<svg xmlns="http://www.w3.org/2000/svg" xmlns:xlink="http://www.w3.org/1999/xlink" class="httpgd" width="1037.00" height="800.00" viewBox="0 0 829.60 640.00">
<defs>
  <style type='text/css'><![CDATA[
    .httpgd line, .httpgd polyline, .httpgd polygon, .httpgd path, .httpgd rect, .httpgd circle {
      fill: none;
      stroke: #000000;
      stroke-linecap: round;
      stroke-linejoin: round;
      stroke-miterlimit: 10.00;
    }
  ]]></style>
<clipPath id="c0"><rect x="0.00" y="0.00" width="829.60" height="640.00"/></clipPath>
<clipPath id="c1"><rect x="59.04" y="59.04" width="740.32" height="507.52"/></clipPath>
<clipPath id="c2"><rect x="0.00" y="0.00" width="829.60" height="640.00"/></clipPath>
<clipPath id="c3"><rect x="59.04" y="59.04" width="740.32" height="507.52"/></clipPath>
</defs>
<rect width="100%" height="100%" style="stroke: none;fill: #FFFFFF;"/>
<g clip-path="url(#c0)">
</g><g clip-path="url(#c1)">
<polyline points="86.46,312.80 93.38,297.90 100.31,283.05 107.23,268.33 114.16,253.78 121.08,239.47 128.00,225.46 134.93,211.80 141.85,198.55 148.78,185.75 155.70,173.47 162.62,161.75 169.55,150.64 176.47,140.18 183.40,130.41 190.32,121.38 197.24,113.12 204.17,105.67 211.09,99.04 218.02,93.28 224.94,88.41 231.86,84.43 238.79,81.38 245.71,79.26 252.64,78.07 259.56,77.84 266.48,78.55 273.41,80.20 280.33,82.79 287.26,86.30 294.18,90.73 301.10,96.05 308.03,102.25 314.95,109.29 321.88,117.15 328.80,125.80 335.73,135.20 342.65,145.32 349.57,156.11 356.50,167.54 363.42,179.55 370.35,192.09 377.27,205.12 384.19,218.58 391.12,232.43 398.04,246.59 404.97,261.03 411.89,275.67 418.81,290.46 425.74,305.34 432.66,320.26 439.59,335.14 446.51,349.93 453.43,364.57 460.36,379.01 467.28,393.17 474.21,407.02 481.13,420.48 488.05,433.51 494.98,446.05 501.90,458.06 508.83,469.49 515.75,480.28 522.67,490.40 529.60,499.80 536.52,508.45 543.45,516.31 550.37,523.35 557.30,529.55 564.22,534.87 571.14,539.30 578.07,542.81 584.99,545.40 591.92,547.05 598.84,547.76 605.76,547.53 612.69,546.34 619.61,544.22 626.54,541.17 633.46,537.19 640.38,532.32 647.31,526.56 654.23,519.93 661.16,512.48 668.08,504.22 675.00,495.19 681.93,485.42 688.85,474.96 695.78,463.85 702.70,452.13 709.62,439.85 716.55,427.05 723.47,413.80 730.40,400.14 737.32,386.13 744.24,371.82 751.17,357.27 758.09,342.55 765.02,327.70 771.94,312.80" style="stroke-width: 1.50;stroke: #8C0000; stroke-dasharray: 8.00, 8.00;"/>
</g><g clip-path="url(#c2)">
<line x1="86.46" y1="566.56" x2="741.05" y2="566.56" style="stroke-width: 0.75;"/>
<line x1="86.46" y1="566.56" x2="86.46" y2="573.76" style="stroke-width: 0.75;"/>
<line x1="195.56" y1="566.56" x2="195.56" y2="573.76" style="stroke-width: 0.75;"/>
<line x1="304.65" y1="566.56" x2="304.65" y2="573.76" style="stroke-width: 0.75;"/>
<line x1="413.75" y1="566.56" x2="413.75" y2="573.76" style="stroke-width: 0.75;"/>
<line x1="522.85" y1="566.56" x2="522.85" y2="573.76" style="stroke-width: 0.75;"/>
<line x1="631.95" y1="566.56" x2="631.95" y2="573.76" style="stroke-width: 0.75;"/>
<line x1="741.05" y1="566.56" x2="741.05" y2="573.76" style="stroke-width: 0.75;"/>
<g><text x="86.46" y="592.48" text-anchor="middle" style="font-family: Arial;font-size: 12.00px;" textLength="6.67px" lengthAdjust="spacingAndGlyphs">0</text></g>
<g><text x="195.56" y="592.48" text-anchor="middle" style="font-family: Arial;font-size: 12.00px;" textLength="6.67px" lengthAdjust="spacingAndGlyphs">1</text></g>
<g><text x="304.65" y="592.48" text-anchor="middle" style="font-family: Arial;font-size: 12.00px;" textLength="6.67px" lengthAdjust="spacingAndGlyphs">2</text></g>
<g><text x="413.75" y="592.48" text-anchor="middle" style="font-family: Arial;font-size: 12.00px;" textLength="6.67px" lengthAdjust="spacingAndGlyphs">3</text></g>
<g><text x="522.85" y="592.48" text-anchor="middle" style="font-family: Arial;font-size: 12.00px;" textLength="6.67px" lengthAdjust="spacingAndGlyphs">4</text></g>
<g><text x="631.95" y="592.48" text-anchor="middle" style="font-family: Arial;font-size: 12.00px;" textLength="6.67px" lengthAdjust="spacingAndGlyphs">5</text></g>
<g><text x="741.05" y="592.48" text-anchor="middle" style="font-family: Arial;font-size: 12.00px;" textLength="6.67px" lengthAdjust="spacingAndGlyphs">6</text></g>
<line x1="59.04" y1="547.79" x2="59.04" y2="77.81" style="stroke-width: 0.75;"/>
<line x1="59.04" y1="547.79" x2="51.84" y2="547.79" style="stroke-width: 0.75;"/>
<line x1="59.04" y1="430.30" x2="51.84" y2="430.30" style="stroke-width: 0.75;"/>
<line x1="59.04" y1="312.80" x2="51.84" y2="312.80" style="stroke-width: 0.75;"/>
<line x1="59.04" y1="195.30" x2="51.84" y2="195.30" style="stroke-width: 0.75;"/>
<line x1="59.04" y1="77.81" x2="51.84" y2="77.81" style="stroke-width: 0.75;"/>
<g><text transform="translate(41.76,547.79) rotate(-90.00)" text-anchor="middle" style="font-family: Arial;font-size: 12.00px;" textLength="20.68px" lengthAdjust="spacingAndGlyphs">-1.0</text></g>
<g><text transform="translate(41.76,430.30) rotate(-90.00)" text-anchor="middle" style="font-family: Arial;font-size: 12.00px;" textLength="20.68px" lengthAdjust="spacingAndGlyphs">-0.5</text></g>
<g><text transform="translate(41.76,312.80) rotate(-90.00)" text-anchor="middle" style="font-family: Arial;font-size: 12.00px;" textLength="16.68px" lengthAdjust="spacingAndGlyphs">0.0</text></g>
<g><text transform="translate(41.76,195.30) rotate(-90.00)" text-anchor="middle" style="font-family: Arial;font-size: 12.00px;" textLength="16.68px" lengthAdjust="spacingAndGlyphs">0.5</text></g>
<g><text transform="translate(41.76,77.81) rotate(-90.00)" text-anchor="middle" style="font-family: Arial;font-size: 12.00px;" textLength="16.68px" lengthAdjust="spacingAndGlyphs">1.0</text></g>
<polygon points="59.04,566.56 799.36,566.56 799.36,59.04 59.04,59.04" style="stroke-width: 0.75;" />
<g><text x="429.20" y="34.70" text-anchor="middle" style="font-family: Arial;font-size: 14.40px;font-weight: bold;" textLength="41.59px" lengthAdjust="spacingAndGlyphs">三角函数</text></g>
<g><text x="429.20" y="621.28" text-anchor="middle" style="font-family: Arial;font-size: 12.00px;" textLength="6.00px" lengthAdjust="spacingAndGlyphs">x</text></g>
<g><text transform="translate(12.96,312.80) rotate(-90.00)" text-anchor="middle" style="font-family: Arial;font-size: 12.00px;" textLength="6.00px" lengthAdjust="spacingAndGlyphs">y</text></g>
</g><g clip-path="url(#c3)">
<polyline points="86.46,77.81 93.38,78.28 100.31,79.70 107.23,82.05 114.16,85.34 121.08,89.54 128.00,94.64 134.93,100.62 141.85,107.45 148.78,115.11 155.70,123.57 162.62,132.79 169.55,142.73 176.47,153.36 183.40,164.62 190.32,176.49 197.24,188.91 204.17,201.82 211.09,215.18 218.02,228.93 224.94,243.03 231.86,257.40 238.79,271.99 245.71,286.75 252.64,301.62 259.56,316.53 266.48,331.42 273.41,346.24 280.33,360.93 287.26,375.42 294.18,389.66 301.10,403.59 308.03,417.15 314.95,430.30 321.88,442.97 328.80,455.11 335.73,466.69 342.65,477.64 349.57,487.93 356.50,497.52 363.42,506.36 370.35,514.42 377.27,521.67 384.19,528.08 391.12,533.62 398.04,538.27 404.97,542.02 411.89,544.84 418.81,546.73 425.74,547.67 432.66,547.67 439.59,546.73 446.51,544.84 453.43,542.02 460.36,538.27 467.28,533.62 474.21,528.08 481.13,521.67 488.05,514.42 494.98,506.36 501.90,497.52 508.83,487.93 515.75,477.64 522.67,466.69 529.60,455.11 536.52,442.97 543.45,430.30 550.37,417.15 557.30,403.59 564.22,389.66 571.14,375.42 578.07,360.93 584.99,346.24 591.92,331.42 598.84,316.53 605.76,301.62 612.69,286.75 619.61,271.99 626.54,257.40 633.46,243.03 640.38,228.93 647.31,215.18 654.23,201.82 661.16,188.91 668.08,176.49 675.00,164.62 681.93,153.36 688.85,142.73 695.78,132.79 702.70,123.57 709.62,115.11 716.55,107.45 723.47,100.62 730.40,94.64 737.32,89.54 744.24,85.34 751.17,82.05 758.09,79.70 765.02,78.28 771.94,77.81" style="stroke-width: 1.50;stroke: #6800AA; stroke-dasharray: 8.00, 8.00;"/>
<circle cx="86.46" cy="312.80" r="2.70" style="stroke-width: 0.75;stroke: #FACC15;"/>
<circle cx="93.38" cy="297.87" r="2.70" style="stroke-width: 0.75;stroke: #FACC15;"/>
<circle cx="100.31" cy="282.81" r="2.70" style="stroke-width: 0.75;stroke: #FACC15;"/>
<circle cx="107.23" cy="267.51" r="2.70" style="stroke-width: 0.75;stroke: #FACC15;"/>
<circle cx="114.16" cy="251.83" r="2.70" style="stroke-width: 0.75;stroke: #FACC15;"/>
<circle cx="121.08" cy="235.62" r="2.70" style="stroke-width: 0.75;stroke: #FACC15;"/>
<circle cx="128.00" cy="218.72" r="2.70" style="stroke-width: 0.75;stroke: #FACC15;"/>
<circle cx="134.93" cy="200.94" r="2.70" style="stroke-width: 0.75;stroke: #FACC15;"/>
<circle cx="141.85" cy="182.05" r="2.70" style="stroke-width: 0.75;stroke: #FACC15;"/>
<circle cx="148.78" cy="161.78" r="2.70" style="stroke-width: 0.75;stroke: #FACC15;"/>
<circle cx="155.70" cy="139.78" r="2.70" style="stroke-width: 0.75;stroke: #FACC15;"/>
<circle cx="162.62" cy="115.62" r="2.70" style="stroke-width: 0.75;stroke: #FACC15;"/>
<circle cx="169.55" cy="88.74" r="2.70" style="stroke-width: 0.75;stroke: #FACC15;"/>
<circle cx="176.47" cy="58.38" r="2.70" style="stroke-width: 0.75;stroke: #FACC15;"/>
<circle cx="183.40" cy="23.55" r="2.70" style="stroke-width: 0.75;stroke: #FACC15;"/>
<circle cx="190.32" cy="-17.20" r="2.70" style="stroke-width: 0.75;stroke: #FACC15;"/>
<circle cx="197.24" cy="-65.94" r="2.70" style="stroke-width: 0.75;stroke: #FACC15;"/>
<circle cx="204.17" cy="-125.79" r="2.70" style="stroke-width: 0.75;stroke: #FACC15;"/>
<circle cx="211.09" cy="-201.76" r="2.70" style="stroke-width: 0.75;stroke: #FACC15;"/>
<circle cx="218.02" cy="-302.29" r="2.70" style="stroke-width: 0.75;stroke: #FACC15;"/>
<circle cx="224.94" cy="-442.94" r="2.70" style="stroke-width: 0.75;stroke: #FACC15;"/>
<circle cx="231.86" cy="-655.85" r="2.70" style="stroke-width: 0.75;stroke: #FACC15;"/>
<circle cx="238.79" cy="-1019.91" r="2.70" style="stroke-width: 0.75;stroke: #FACC15;"/>
<circle cx="245.71" cy="-1794.28" r="2.70" style="stroke-width: 0.75;stroke: #FACC15;"/>
<circle cx="266.48" cy="3268.68" r="2.70" style="stroke-width: 0.75;stroke: #FACC15;"/>
<circle cx="273.41" cy="1947.21" r="2.70" style="stroke-width: 0.75;stroke: #FACC15;"/>
<circle cx="280.33" cy="1435.87" r="2.70" style="stroke-width: 0.75;stroke: #FACC15;"/>
<circle cx="287.26" cy="1162.77" r="2.70" style="stroke-width: 0.75;stroke: #FACC15;"/>
<circle cx="294.18" cy="991.77" r="2.70" style="stroke-width: 0.75;stroke: #FACC15;"/>
<circle cx="301.10" cy="873.82" r="2.70" style="stroke-width: 0.75;stroke: #FACC15;"/>
<circle cx="308.03" cy="786.94" r="2.70" style="stroke-width: 0.75;stroke: #FACC15;"/>
<circle cx="314.95" cy="719.82" r="2.70" style="stroke-width: 0.75;stroke: #FACC15;"/>
<circle cx="321.88" cy="666.01" r="2.70" style="stroke-width: 0.75;stroke: #FACC15;"/>
<circle cx="328.80" cy="621.58" r="2.70" style="stroke-width: 0.75;stroke: #FACC15;"/>
<circle cx="335.73" cy="584.00" r="2.70" style="stroke-width: 0.75;stroke: #FACC15;"/>
<circle cx="342.65" cy="551.55" r="2.70" style="stroke-width: 0.75;stroke: #FACC15;"/>
<circle cx="349.57" cy="523.04" r="2.70" style="stroke-width: 0.75;stroke: #FACC15;"/>
<circle cx="356.50" cy="497.60" r="2.70" style="stroke-width: 0.75;stroke: #FACC15;"/>
<circle cx="363.42" cy="474.58" r="2.70" style="stroke-width: 0.75;stroke: #FACC15;"/>
<circle cx="370.35" cy="453.49" r="2.70" style="stroke-width: 0.75;stroke: #FACC15;"/>
<circle cx="377.27" cy="433.95" r="2.70" style="stroke-width: 0.75;stroke: #FACC15;"/>
<circle cx="384.19" cy="415.64" r="2.70" style="stroke-width: 0.75;stroke: #FACC15;"/>
<circle cx="391.12" cy="398.33" r="2.70" style="stroke-width: 0.75;stroke: #FACC15;"/>
<circle cx="398.04" cy="381.80" r="2.70" style="stroke-width: 0.75;stroke: #FACC15;"/>
<circle cx="404.97" cy="365.88" r="2.70" style="stroke-width: 0.75;stroke: #FACC15;"/>
<circle cx="411.89" cy="350.40" r="2.70" style="stroke-width: 0.75;stroke: #FACC15;"/>
<circle cx="418.81" cy="335.24" r="2.70" style="stroke-width: 0.75;stroke: #FACC15;"/>
<circle cx="425.74" cy="320.26" r="2.70" style="stroke-width: 0.75;stroke: #FACC15;"/>
<circle cx="432.66" cy="305.34" r="2.70" style="stroke-width: 0.75;stroke: #FACC15;"/>
<circle cx="439.59" cy="290.36" r="2.70" style="stroke-width: 0.75;stroke: #FACC15;"/>
<circle cx="446.51" cy="275.20" r="2.70" style="stroke-width: 0.75;stroke: #FACC15;"/>
<circle cx="453.43" cy="259.72" r="2.70" style="stroke-width: 0.75;stroke: #FACC15;"/>
<circle cx="460.36" cy="243.80" r="2.70" style="stroke-width: 0.75;stroke: #FACC15;"/>
<circle cx="467.28" cy="227.27" r="2.70" style="stroke-width: 0.75;stroke: #FACC15;"/>
<circle cx="474.21" cy="209.96" r="2.70" style="stroke-width: 0.75;stroke: #FACC15;"/>
<circle cx="481.13" cy="191.65" r="2.70" style="stroke-width: 0.75;stroke: #FACC15;"/>
<circle cx="488.05" cy="172.11" r="2.70" style="stroke-width: 0.75;stroke: #FACC15;"/>
<circle cx="494.98" cy="151.02" r="2.70" style="stroke-width: 0.75;stroke: #FACC15;"/>
<circle cx="501.90" cy="128.00" r="2.70" style="stroke-width: 0.75;stroke: #FACC15;"/>
<circle cx="508.83" cy="102.56" r="2.70" style="stroke-width: 0.75;stroke: #FACC15;"/>
<circle cx="515.75" cy="74.05" r="2.70" style="stroke-width: 0.75;stroke: #FACC15;"/>
<circle cx="522.67" cy="41.60" r="2.70" style="stroke-width: 0.75;stroke: #FACC15;"/>
<circle cx="529.60" cy="4.02" r="2.70" style="stroke-width: 0.75;stroke: #FACC15;"/>
<circle cx="536.52" cy="-40.41" r="2.70" style="stroke-width: 0.75;stroke: #FACC15;"/>
<circle cx="543.45" cy="-94.22" r="2.70" style="stroke-width: 0.75;stroke: #FACC15;"/>
<circle cx="550.37" cy="-161.34" r="2.70" style="stroke-width: 0.75;stroke: #FACC15;"/>
<circle cx="557.30" cy="-248.22" r="2.70" style="stroke-width: 0.75;stroke: #FACC15;"/>
<circle cx="564.22" cy="-366.17" r="2.70" style="stroke-width: 0.75;stroke: #FACC15;"/>
<circle cx="571.14" cy="-537.17" r="2.70" style="stroke-width: 0.75;stroke: #FACC15;"/>
<circle cx="578.07" cy="-810.27" r="2.70" style="stroke-width: 0.75;stroke: #FACC15;"/>
<circle cx="584.99" cy="-1321.61" r="2.70" style="stroke-width: 0.75;stroke: #FACC15;"/>
<circle cx="591.92" cy="-2643.08" r="2.70" style="stroke-width: 0.75;stroke: #FACC15;"/>
<circle cx="612.69" cy="2419.88" r="2.70" style="stroke-width: 0.75;stroke: #FACC15;"/>
<circle cx="619.61" cy="1645.51" r="2.70" style="stroke-width: 0.75;stroke: #FACC15;"/>
<circle cx="626.54" cy="1281.45" r="2.70" style="stroke-width: 0.75;stroke: #FACC15;"/>
<circle cx="633.46" cy="1068.54" r="2.70" style="stroke-width: 0.75;stroke: #FACC15;"/>
<circle cx="640.38" cy="927.89" r="2.70" style="stroke-width: 0.75;stroke: #FACC15;"/>
<circle cx="647.31" cy="827.36" r="2.70" style="stroke-width: 0.75;stroke: #FACC15;"/>
<circle cx="654.23" cy="751.39" r="2.70" style="stroke-width: 0.75;stroke: #FACC15;"/>
<circle cx="661.16" cy="691.54" r="2.70" style="stroke-width: 0.75;stroke: #FACC15;"/>
<circle cx="668.08" cy="642.80" r="2.70" style="stroke-width: 0.75;stroke: #FACC15;"/>
<circle cx="675.00" cy="602.05" r="2.70" style="stroke-width: 0.75;stroke: #FACC15;"/>
<circle cx="681.93" cy="567.22" r="2.70" style="stroke-width: 0.75;stroke: #FACC15;"/>
<circle cx="688.85" cy="536.86" r="2.70" style="stroke-width: 0.75;stroke: #FACC15;"/>
<circle cx="695.78" cy="509.98" r="2.70" style="stroke-width: 0.75;stroke: #FACC15;"/>
<circle cx="702.70" cy="485.82" r="2.70" style="stroke-width: 0.75;stroke: #FACC15;"/>
<circle cx="709.62" cy="463.82" r="2.70" style="stroke-width: 0.75;stroke: #FACC15;"/>
<circle cx="716.55" cy="443.55" r="2.70" style="stroke-width: 0.75;stroke: #FACC15;"/>
<circle cx="723.47" cy="424.66" r="2.70" style="stroke-width: 0.75;stroke: #FACC15;"/>
<circle cx="730.40" cy="406.88" r="2.70" style="stroke-width: 0.75;stroke: #FACC15;"/>
<circle cx="737.32" cy="389.98" r="2.70" style="stroke-width: 0.75;stroke: #FACC15;"/>
<circle cx="744.24" cy="373.77" r="2.70" style="stroke-width: 0.75;stroke: #FACC15;"/>
<circle cx="751.17" cy="358.09" r="2.70" style="stroke-width: 0.75;stroke: #FACC15;"/>
<circle cx="758.09" cy="342.79" r="2.70" style="stroke-width: 0.75;stroke: #FACC15;"/>
<circle cx="765.02" cy="327.73" r="2.70" style="stroke-width: 0.75;stroke: #FACC15;"/>
<circle cx="771.94" cy="312.80" r="2.70" style="stroke-width: 0.75;stroke: #FACC15;"/>
</g>
</svg>