<svg xmlns="http://www.w3.org/2000/svg" xmlns:xlink="http://www.w3.org/1999/xlink" class="httpgd" width="1037.00" height="800.00" viewBox="0 0 829.60 640.00">
<defs>
  <style type='text/css'><![CDATA[
    .httpgd line, .httpgd polyline, .httpgd polygon, .httpgd path, .httpgd rect, .httpgd circle {
      fill: none;
      stroke: #000000;
      stroke-linecap: round;
      stroke-linejoin: round;
      stroke-miterlimit: 10.00;
    }
  ]]></style>
<clipPath id="c0"><rect x="0.00" y="0.00" width="829.60" height="640.00"/></clipPath>
<clipPath id="c1"><rect x="59.04" y="59.04" width="740.32" height="507.52"/></clipPath>
<clipPath id="c2"><rect x="0.00" y="0.00" width="829.60" height="640.00"/></clipPath>
</defs>
<rect width="100%" height="100%" style="stroke: none;fill: #FFFFFF;"/>
<g clip-path="url(#c0)">
</g><g clip-path="url(#c1)">
<line x1="93.27" y1="545.43" x2="251.02" y2="491.36" style="stroke-width: 0.75;stroke: #8C0000;"/>
<line x1="264.08" y1="485.45" x2="422.95" y2="394.69" style="stroke-width: 0.75;stroke: #8C0000;"/>
<line x1="434.82" y1="386.62" x2="594.95" y2="258.56" style="stroke-width: 0.75;stroke: #8C0000;"/>
<line x1="605.59" y1="248.90" x2="766.92" y2="83.00" style="stroke-width: 0.75;stroke: #8C0000;"/>
<circle cx="86.46" cy="547.76" r="2.70" style="stroke-width: 0.75;stroke: #8C0000;"/>
<circle cx="257.83" cy="489.02" r="2.70" style="stroke-width: 0.75;stroke: #8C0000;"/>
<circle cx="429.20" cy="391.12" r="2.70" style="stroke-width: 0.75;stroke: #8C0000;"/>
<circle cx="600.57" cy="254.06" r="2.70" style="stroke-width: 0.75;stroke: #8C0000;"/>
<circle cx="771.94" cy="77.84" r="2.70" style="stroke-width: 0.75;stroke: #8C0000;"/>
</g><g clip-path="url(#c2)">
<line x1="86.46" y1="566.56" x2="771.94" y2="566.56" style="stroke-width: 0.75;"/>
<line x1="86.46" y1="566.56" x2="86.46" y2="573.76" style="stroke-width: 0.75;"/>
<line x1="257.83" y1="566.56" x2="257.83" y2="573.76" style="stroke-width: 0.75;"/>
<line x1="429.20" y1="566.56" x2="429.20" y2="573.76" style="stroke-width: 0.75;"/>
<line x1="600.57" y1="566.56" x2="600.57" y2="573.76" style="stroke-width: 0.75;"/>
<line x1="771.94" y1="566.56" x2="771.94" y2="573.76" style="stroke-width: 0.75;"/>
<g><text x="86.46" y="592.48" text-anchor="middle" style="font-family: Arial;font-size: 12.00px;" textLength="6.67px" lengthAdjust="spacingAndGlyphs">1</text></g>
<g><text x="257.83" y="592.48" text-anchor="middle" style="font-family: Arial;font-size: 12.00px;" textLength="6.67px" lengthAdjust="spacingAndGlyphs">2</text></g>
<g><text x="429.20" y="592.48" text-anchor="middle" style="font-family: Arial;font-size: 12.00px;" textLength="6.67px" lengthAdjust="spacingAndGlyphs">3</text></g>
<g><text x="600.57" y="592.48" text-anchor="middle" style="font-family: Arial;font-size: 12.00px;" textLength="6.67px" lengthAdjust="spacingAndGlyphs">4</text></g>
<g><text x="771.94" y="592.48" text-anchor="middle" style="font-family: Arial;font-size: 12.00px;" textLength="6.67px" lengthAdjust="spacingAndGlyphs">5</text></g>
<line x1="59.04" y1="469.44" x2="59.04" y2="77.84" style="stroke-width: 0.75;"/>
<line x1="59.04" y1="469.44" x2="51.84" y2="469.44" style="stroke-width: 0.75;"/>
<line x1="59.04" y1="371.54" x2="51.84" y2="371.54" style="stroke-width: 0.75;"/>
<line x1="59.04" y1="273.64" x2="51.84" y2="273.64" style="stroke-width: 0.75;"/>
<line x1="59.04" y1="175.74" x2="51.84" y2="175.74" style="stroke-width: 0.75;"/>
<line x1="59.04" y1="77.84" x2="51.84" y2="77.84" style="stroke-width: 0.75;"/>
<g><text transform="translate(41.76,469.44) rotate(-90.00)" text-anchor="middle" style="font-family: Arial;font-size: 12.00px;" textLength="6.67px" lengthAdjust="spacingAndGlyphs">5</text></g>
<g><text transform="translate(41.76,371.54) rotate(-90.00)" text-anchor="middle" style="font-family: Arial;font-size: 12.00px;" textLength="13.35px" lengthAdjust="spacingAndGlyphs">10</text></g>
<g><text transform="translate(41.76,273.64) rotate(-90.00)" text-anchor="middle" style="font-family: Arial;font-size: 12.00px;" textLength="13.35px" lengthAdjust="spacingAndGlyphs">15</text></g>
<g><text transform="translate(41.76,175.74) rotate(-90.00)" text-anchor="middle" style="font-family: Arial;font-size: 12.00px;" textLength="13.35px" lengthAdjust="spacingAndGlyphs">20</text></g>
<g><text transform="translate(41.76,77.84) rotate(-90.00)" text-anchor="middle" style="font-family: Arial;font-size: 12.00px;" textLength="13.35px" lengthAdjust="spacingAndGlyphs">25</text></g>
<polygon points="59.04,566.56 799.36,566.56 799.36,59.04 59.04,59.04" style="stroke-width: 0.75;" />
<g><text x="429.20" y="34.70" text-anchor="middle" style="font-family: Arial;font-size: 14.40px;font-weight: bold;" textLength="31.19px" lengthAdjust="spacingAndGlyphs">散点图</text></g>
<g><text x="429.20" y="621.28" text-anchor="middle" style="font-family: Arial;font-size: 12.00px;" textLength="6.00px" lengthAdjust="spacingAndGlyphs">x</text></g>
<g><text transform="translate(12.96,312.80) rotate(-90.00)" text-anchor="middle" style="font-family: Arial;font-size: 12.00px;" textLength="6.00px" lengthAdjust="spacingAndGlyphs">y</text></g>
</g>
</svg>