<svg xmlns="http://www.w3.org/2000/svg" xmlns:xlink="http://www.w3.org/1999/xlink" class="httpgd" width="1037.00" height="800.00" viewBox="0 0 829.60 640.00">
<defs>
  <style type='text/css'><![CDATA[
    .httpgd line, .httpgd polyline, .httpgd polygon, .httpgd path, .httpgd rect, .httpgd circle {
      fill: none;
      stroke: #000000;
      stroke-linecap: round;
      stroke-linejoin: round;
      stroke-miterlimit: 10.00;
    }
  ]]></style>
<clipPath id="c0"><rect x="0.00" y="0.00" width="829.60" height="640.00"/></clipPath>
<clipPath id="c1"><rect x="59.04" y="59.04" width="740.32" height="507.52"/></clipPath>
<clipPath id="c2"><rect x="0.00" y="0.00" width="829.60" height="640.00"/></clipPath>
<clipPath id="c3"><rect x="59.04" y="59.04" width="740.32" height="507.52"/></clipPath>
</defs>
<rect width="100%" height="100%" style="stroke: none;fill: #FFFFFF;"/>
<g clip-path="url(#c0)">
</g><g clip-path="url(#c2)">
<g><text x="429.20" y="34.70" text-anchor="middle" style="font-family: Arial;font-size: 14.40px;font-weight: bold;" textLength="31.19px" lengthAdjust="spacingAndGlyphs">直方图</text></g>
<g><text x="429.20" y="621.28" text-anchor="middle" style="font-family: Arial;font-size: 12.00px;" textLength="6.00px" lengthAdjust="spacingAndGlyphs">x</text></g>
<g><text transform="translate(12.96,312.80) rotate(-90.00)" text-anchor="middle" style="font-family: Arial;font-size: 12.00px;" textLength="6.00px" lengthAdjust="spacingAndGlyphs">y</text></g>
<line x1="135.42" y1="566.56" x2="722.98" y2="566.56" style="stroke-width: 0.75;"/>
<line x1="135.42" y1="566.56" x2="135.42" y2="573.76" style="stroke-width: 0.75;"/>
<line x1="233.35" y1="566.56" x2="233.35" y2="573.76" style="stroke-width: 0.75;"/>
<line x1="331.27" y1="566.56" x2="331.27" y2="573.76" style="stroke-width: 0.75;"/>
<line x1="429.20" y1="566.56" x2="429.20" y2="573.76" style="stroke-width: 0.75;"/>
<line x1="527.13" y1="566.56" x2="527.13" y2="573.76" style="stroke-width: 0.75;"/>
<line x1="625.05" y1="566.56" x2="625.05" y2="573.76" style="stroke-width: 0.75;"/>
<line x1="722.98" y1="566.56" x2="722.98" y2="573.76" style="stroke-width: 0.75;"/>
<g><text x="135.42" y="592.48" text-anchor="middle" style="font-family: Arial;font-size: 12.00px;" textLength="10.67px" lengthAdjust="spacingAndGlyphs">-3</text></g>
<g><text x="233.35" y="592.48" text-anchor="middle" style="font-family: Arial;font-size: 12.00px;" textLength="10.67px" lengthAdjust="spacingAndGlyphs">-2</text></g>
<g><text x="331.27" y="592.48" text-anchor="middle" style="font-family: Arial;font-size: 12.00px;" textLength="10.67px" lengthAdjust="spacingAndGlyphs">-1</text></g>
<g><text x="429.20" y="592.48" text-anchor="middle" style="font-family: Arial;font-size: 12.00px;" textLength="6.67px" lengthAdjust="spacingAndGlyphs">0</text></g>
<g><text x="527.13" y="592.48" text-anchor="middle" style="font-family: Arial;font-size: 12.00px;" textLength="6.67px" lengthAdjust="spacingAndGlyphs">1</text></g>
<g><text x="625.05" y="592.48" text-anchor="middle" style="font-family: Arial;font-size: 12.00px;" textLength="6.67px" lengthAdjust="spacingAndGlyphs">2</text></g>
<g><text x="722.98" y="592.48" text-anchor="middle" style="font-family: Arial;font-size: 12.00px;" textLength="6.67px" lengthAdjust="spacingAndGlyphs">3</text></g>
<line x1="59.04" y1="547.76" x2="59.04" y2="139.13" style="stroke-width: 0.75;"/>
<line x1="59.04" y1="547.76" x2="51.84" y2="547.76" style="stroke-width: 0.75;"/>
<line x1="59.04" y1="445.61" x2="51.84" y2="445.61" style="stroke-width: 0.75;"/>
<line x1="59.04" y1="343.45" x2="51.84" y2="343.45" style="stroke-width: 0.75;"/>
<line x1="59.04" y1="241.29" x2="51.84" y2="241.29" style="stroke-width: 0.75;"/>
<line x1="59.04" y1="139.13" x2="51.84" y2="139.13" style="stroke-width: 0.75;"/>
<g><text transform="translate(41.76,547.76) rotate(-90.00)" text-anchor="middle" style="font-family: Arial;font-size: 12.00px;" textLength="6.67px" lengthAdjust="spacingAndGlyphs">0</text></g>
<g><text transform="translate(41.76,445.61) rotate(-90.00)" text-anchor="middle" style="font-family: Arial;font-size: 12.00px;" textLength="13.35px" lengthAdjust="spacingAndGlyphs">50</text></g>
<g><text transform="translate(41.76,343.45) rotate(-90.00)" text-anchor="middle" style="font-family: Arial;font-size: 12.00px;" textLength="20.02px" lengthAdjust="spacingAndGlyphs">100</text></g>
<g><text transform="translate(41.76,241.29) rotate(-90.00)" text-anchor="middle" style="font-family: Arial;font-size: 12.00px;" textLength="20.02px" lengthAdjust="spacingAndGlyphs">150</text></g>
<g><text transform="translate(41.76,139.13) rotate(-90.00)" text-anchor="middle" style="font-family: Arial;font-size: 12.00px;" textLength="20.02px" lengthAdjust="spacingAndGlyphs">200</text></g>
</g><g clip-path="url(#c3)">
<rect x="86.46" y="545.72" width="48.96" height="2.04" style="stroke-width: 0.75;fill: #8C0000;"/>
<rect x="135.42" y="545.72" width="48.96" height="2.04" style="stroke-width: 0.75;fill: #8C0000;"/>
<rect x="184.39" y="521.20" width="48.96" height="26.56" style="stroke-width: 0.75;fill: #8C0000;"/>
<rect x="233.35" y="461.95" width="48.96" height="85.81" style="stroke-width: 0.75;fill: #8C0000;"/>
<rect x="282.31" y="386.35" width="48.96" height="161.41" style="stroke-width: 0.75;fill: #8C0000;"/>
<rect x="331.27" y="261.72" width="48.96" height="286.04" style="stroke-width: 0.75;fill: #8C0000;"/>
<rect x="380.24" y="77.84" width="48.96" height="469.93" style="stroke-width: 0.75;fill: #8C0000;"/>
<rect x="429.20" y="151.39" width="48.96" height="396.37" style="stroke-width: 0.75;fill: #8C0000;"/>
<rect x="478.16" y="241.29" width="48.96" height="306.47" style="stroke-width: 0.75;fill: #8C0000;"/>
<rect x="527.13" y="351.62" width="48.96" height="196.14" style="stroke-width: 0.75;fill: #8C0000;"/>
<rect x="576.09" y="480.34" width="48.96" height="67.42" style="stroke-width: 0.75;fill: #8C0000;"/>
<rect x="625.05" y="521.20" width="48.96" height="26.56" style="stroke-width: 0.75;fill: #8C0000;"/>
<rect x="674.01" y="533.46" width="48.96" height="14.30" style="stroke-width: 0.75;fill: #8C0000;"/>
<rect x="722.98" y="545.72" width="48.96" height="2.04" style="stroke-width: 0.75;fill: #8C0000;"/>
</g>
</svg>