<svg xmlns="http://www.w3.org/2000/svg" xmlns:xlink="http://www.w3.org/1999/xlink" class="httpgd" width="1037.00" height="800.00" viewBox="0 0 829.60 640.00">
<defs>
  <style type='text/css'><![CDATA[
    .httpgd line, .httpgd polyline, .httpgd polygon, .httpgd path, .httpgd rect, .httpgd circle {
      fill: none;
      stroke: #000000;
      stroke-linecap: round;
      stroke-linejoin: round;
      stroke-miterlimit: 10.00;
    }
  ]]></style>
<clipPath id="c0"><rect x="0.00" y="0.00" width="829.60" height="640.00"/></clipPath>
<clipPath id="c1"><rect x="59.04" y="59.04" width="740.32" height="507.52"/></clipPath>
<clipPath id="c2"><rect x="0.00" y="0.00" width="829.60" height="640.00"/></clipPath>
</defs>
<rect width="100%" height="100%" style="stroke: none;fill: #FFFFFF;"/>
<g clip-path="url(#c0)">
</g><g clip-path="url(#c1)">
<line x1="86.46" y1="547.76" x2="86.46" y2="547.76" style="stroke-width: 0.75;stroke: #8C0000;"/>
<line x1="93.38" y1="547.76" x2="93.38" y2="500.77" style="stroke-width: 0.75;stroke: #8C0000;"/>
<line x1="100.31" y1="547.76" x2="100.31" y2="453.78" style="stroke-width: 0.75;stroke: #8C0000;"/>
<line x1="107.23" y1="547.76" x2="107.23" y2="453.78" style="stroke-width: 0.75;stroke: #8C0000;"/>
<line x1="114.16" y1="547.76" x2="114.16" y2="453.78" style="stroke-width: 0.75;stroke: #8C0000;"/>
<line x1="121.08" y1="547.76" x2="121.08" y2="453.78" style="stroke-width: 0.75;stroke: #8C0000;"/>
<line x1="128.00" y1="547.76" x2="128.00" y2="406.79" style="stroke-width: 0.75;stroke: #8C0000;"/>
<line x1="134.93" y1="547.76" x2="134.93" y2="406.79" style="stroke-width: 0.75;stroke: #8C0000;"/>
<line x1="141.85" y1="547.76" x2="141.85" y2="406.79" style="stroke-width: 0.75;stroke: #8C0000;"/>
<line x1="148.78" y1="547.76" x2="148.78" y2="406.79" style="stroke-width: 0.75;stroke: #8C0000;"/>
<line x1="155.70" y1="547.76" x2="155.70" y2="406.79" style="stroke-width: 0.75;stroke: #8C0000;"/>
<line x1="162.62" y1="547.76" x2="162.62" y2="406.79" style="stroke-width: 0.75;stroke: #8C0000;"/>
<line x1="169.55" y1="547.76" x2="169.55" y2="406.79" style="stroke-width: 0.75;stroke: #8C0000;"/>
<line x1="176.47" y1="547.76" x2="176.47" y2="406.79" style="stroke-width: 0.75;stroke: #8C0000;"/>
<line x1="183.40" y1="547.76" x2="183.40" y2="406.79" style="stroke-width: 0.75;stroke: #8C0000;"/>
<line x1="190.32" y1="547.76" x2="190.32" y2="406.79" style="stroke-width: 0.75;stroke: #8C0000;"/>
<line x1="197.24" y1="547.76" x2="197.24" y2="406.79" style="stroke-width: 0.75;stroke: #8C0000;"/>
<line x1="204.17" y1="547.76" x2="204.17" y2="406.79" style="stroke-width: 0.75;stroke: #8C0000;"/>
<line x1="211.09" y1="547.76" x2="211.09" y2="359.79" style="stroke-width: 0.75;stroke: #8C0000;"/>
<line x1="218.02" y1="547.76" x2="218.02" y2="359.79" style="stroke-width: 0.75;stroke: #8C0000;"/>
<line x1="224.94" y1="547.76" x2="224.94" y2="359.79" style="stroke-width: 0.75;stroke: #8C0000;"/>
<line x1="231.86" y1="547.76" x2="231.86" y2="359.79" style="stroke-width: 0.75;stroke: #8C0000;"/>
<line x1="238.79" y1="547.76" x2="238.79" y2="359.79" style="stroke-width: 0.75;stroke: #8C0000;"/>
<line x1="245.71" y1="547.76" x2="245.71" y2="359.79" style="stroke-width: 0.75;stroke: #8C0000;"/>
<line x1="252.64" y1="547.76" x2="252.64" y2="359.79" style="stroke-width: 0.75;stroke: #8C0000;"/>
<line x1="259.56" y1="547.76" x2="259.56" y2="359.79" style="stroke-width: 0.75;stroke: #8C0000;"/>
<line x1="266.48" y1="547.76" x2="266.48" y2="359.79" style="stroke-width: 0.75;stroke: #8C0000;"/>
<line x1="273.41" y1="547.76" x2="273.41" y2="359.79" style="stroke-width: 0.75;stroke: #8C0000;"/>
<line x1="280.33" y1="547.76" x2="280.33" y2="359.79" style="stroke-width: 0.75;stroke: #8C0000;"/>
<line x1="287.26" y1="547.76" x2="287.26" y2="359.79" style="stroke-width: 0.75;stroke: #8C0000;"/>
<line x1="294.18" y1="547.76" x2="294.18" y2="359.79" style="stroke-width: 0.75;stroke: #8C0000;"/>
<line x1="301.10" y1="547.76" x2="301.10" y2="359.79" style="stroke-width: 0.75;stroke: #8C0000;"/>
<line x1="308.03" y1="547.76" x2="308.03" y2="359.79" style="stroke-width: 0.75;stroke: #8C0000;"/>
<line x1="314.95" y1="547.76" x2="314.95" y2="359.79" style="stroke-width: 0.75;stroke: #8C0000;"/>
<line x1="321.88" y1="547.76" x2="321.88" y2="359.79" style="stroke-width: 0.75;stroke: #8C0000;"/>
<line x1="328.80" y1="547.76" x2="328.80" y2="359.79" style="stroke-width: 0.75;stroke: #8C0000;"/>
<line x1="335.73" y1="547.76" x2="335.73" y2="359.79" style="stroke-width: 0.75;stroke: #8C0000;"/>
<line x1="342.65" y1="547.76" x2="342.65" y2="359.79" style="stroke-width: 0.75;stroke: #8C0000;"/>
<line x1="349.57" y1="547.76" x2="349.57" y2="312.80" style="stroke-width: 0.75;stroke: #8C0000;"/>
<line x1="356.50" y1="547.76" x2="356.50" y2="312.80" style="stroke-width: 0.75;stroke: #8C0000;"/>
<line x1="363.42" y1="547.76" x2="363.42" y2="312.80" style="stroke-width: 0.75;stroke: #8C0000;"/>
<line x1="370.35" y1="547.76" x2="370.35" y2="312.80" style="stroke-width: 0.75;stroke: #8C0000;"/>
<line x1="377.27" y1="547.76" x2="377.27" y2="312.80" style="stroke-width: 0.75;stroke: #8C0000;"/>
<line x1="384.19" y1="547.76" x2="384.19" y2="312.80" style="stroke-width: 0.75;stroke: #8C0000;"/>
<line x1="391.12" y1="547.76" x2="391.12" y2="312.80" style="stroke-width: 0.75;stroke: #8C0000;"/>
<line x1="398.04" y1="547.76" x2="398.04" y2="312.80" style="stroke-width: 0.75;stroke: #8C0000;"/>
<line x1="404.97" y1="547.76" x2="404.97" y2="312.80" style="stroke-width: 0.75;stroke: #8C0000;"/>
<line x1="411.89" y1="547.76" x2="411.89" y2="312.80" style="stroke-width: 0.75;stroke: #8C0000;"/>
<line x1="418.81" y1="547.76" x2="418.81" y2="312.80" style="stroke-width: 0.75;stroke: #8C0000;"/>
<line x1="425.74" y1="547.76" x2="425.74" y2="312.80" style="stroke-width: 0.75;stroke: #8C0000;"/>
<line x1="432.66" y1="547.76" x2="432.66" y2="312.80" style="stroke-width: 0.75;stroke: #8C0000;"/>
<line x1="439.59" y1="547.76" x2="439.59" y2="312.80" style="stroke-width: 0.75;stroke: #8C0000;"/>
<line x1="446.51" y1="547.76" x2="446.51" y2="312.80" style="stroke-width: 0.75;stroke: #8C0000;"/>
<line x1="453.43" y1="547.76" x2="453.43" y2="312.80" style="stroke-width: 0.75;stroke: #8C0000;"/>
<line x1="460.36" y1="547.76" x2="460.36" y2="312.80" style="stroke-width: 0.75;stroke: #8C0000;"/>
<line x1="467.28" y1="547.76" x2="467.28" y2="312.80" style="stroke-width: 0.75;stroke: #8C0000;"/>
<line x1="474.21" y1="547.76" x2="474.21" y2="312.80" style="stroke-width: 0.75;stroke: #8C0000;"/>
<line x1="481.13" y1="547.76" x2="481.13" y2="312.80" style="stroke-width: 0.75;stroke: #8C0000;"/>
<line x1="488.05" y1="547.76" x2="488.05" y2="312.80" style="stroke-width: 0.75;stroke: #8C0000;"/>
<line x1="494.98" y1="547.76" x2="494.98" y2="312.80" style="stroke-width: 0.75;stroke: #8C0000;"/>
<line x1="501.90" y1="547.76" x2="501.90" y2="312.80" style="stroke-width: 0.75;stroke: #8C0000;"/>
<line x1="508.83" y1="547.76" x2="508.83" y2="312.80" style="stroke-width: 0.75;stroke: #8C0000;"/>
<line x1="515.75" y1="547.76" x2="515.75" y2="265.81" style="stroke-width: 0.75;stroke: #8C0000;"/>
<line x1="522.67" y1="547.76" x2="522.67" y2="265.81" style="stroke-width: 0.75;stroke: #8C0000;"/>
<line x1="529.60" y1="547.76" x2="529.60" y2="265.81" style="stroke-width: 0.75;stroke: #8C0000;"/>
<line x1="536.52" y1="547.76" x2="536.52" y2="265.81" style="stroke-width: 0.75;stroke: #8C0000;"/>
<line x1="543.45" y1="547.76" x2="543.45" y2="265.81" style="stroke-width: 0.75;stroke: #8C0000;"/>
<line x1="550.37" y1="547.76" x2="550.37" y2="265.81" style="stroke-width: 0.75;stroke: #8C0000;"/>
<line x1="557.30" y1="547.76" x2="557.30" y2="265.81" style="stroke-width: 0.75;stroke: #8C0000;"/>
<line x1="564.22" y1="547.76" x2="564.22" y2="265.81" style="stroke-width: 0.75;stroke: #8C0000;"/>
<line x1="571.14" y1="547.76" x2="571.14" y2="265.81" style="stroke-width: 0.75;stroke: #8C0000;"/>
<line x1="578.07" y1="547.76" x2="578.07" y2="265.81" style="stroke-width: 0.75;stroke: #8C0000;"/>
<line x1="584.99" y1="547.76" x2="584.99" y2="265.81" style="stroke-width: 0.75;stroke: #8C0000;"/>
<line x1="591.92" y1="547.76" x2="591.92" y2="265.81" style="stroke-width: 0.75;stroke: #8C0000;"/>
<line x1="598.84" y1="547.76" x2="598.84" y2="265.81" style="stroke-width: 0.75;stroke: #8C0000;"/>
<line x1="605.76" y1="547.76" x2="605.76" y2="265.81" style="stroke-width: 0.75;stroke: #8C0000;"/>
<line x1="612.69" y1="547.76" x2="612.69" y2="265.81" style="stroke-width: 0.75;stroke: #8C0000;"/>
<line x1="619.61" y1="547.76" x2="619.61" y2="265.81" style="stroke-width: 0.75;stroke: #8C0000;"/>
<line x1="626.54" y1="547.76" x2="626.54" y2="265.81" style="stroke-width: 0.75;stroke: #8C0000;"/>
<line x1="633.46" y1="547.76" x2="633.46" y2="265.81" style="stroke-width: 0.75;stroke: #8C0000;"/>
<line x1="640.38" y1="547.76" x2="640.38" y2="265.81" style="stroke-width: 0.75;stroke: #8C0000;"/>
<line x1="647.31" y1="547.76" x2="647.31" y2="265.81" style="stroke-width: 0.75;stroke: #8C0000;"/>
<line x1="654.23" y1="547.76" x2="654.23" y2="218.81" style="stroke-width: 0.75;stroke: #8C0000;"/>
<line x1="661.16" y1="547.76" x2="661.16" y2="218.81" style="stroke-width: 0.75;stroke: #8C0000;"/>
<line x1="668.08" y1="547.76" x2="668.08" y2="218.81" style="stroke-width: 0.75;stroke: #8C0000;"/>
<line x1="675.00" y1="547.76" x2="675.00" y2="218.81" style="stroke-width: 0.75;stroke: #8C0000;"/>
<line x1="681.93" y1="547.76" x2="681.93" y2="218.81" style="stroke-width: 0.75;stroke: #8C0000;"/>
<line x1="688.85" y1="547.76" x2="688.85" y2="218.81" style="stroke-width: 0.75;stroke: #8C0000;"/>
<line x1="695.78" y1="547.76" x2="695.78" y2="218.81" style="stroke-width: 0.75;stroke: #8C0000;"/>
<line x1="702.70" y1="547.76" x2="702.70" y2="218.81" style="stroke-width: 0.75;stroke: #8C0000;"/>
<line x1="709.62" y1="547.76" x2="709.62" y2="218.81" style="stroke-width: 0.75;stroke: #8C0000;"/>
<line x1="716.55" y1="547.76" x2="716.55" y2="218.81" style="stroke-width: 0.75;stroke: #8C0000;"/>
<line x1="723.47" y1="547.76" x2="723.47" y2="218.81" style="stroke-width: 0.75;stroke: #8C0000;"/>
<line x1="730.40" y1="547.76" x2="730.40" y2="218.81" style="stroke-width: 0.75;stroke: #8C0000;"/>
<line x1="737.32" y1="547.76" x2="737.32" y2="171.82" style="stroke-width: 0.75;stroke: #8C0000;"/>
<line x1="744.24" y1="547.76" x2="744.24" y2="171.82" style="stroke-width: 0.75;stroke: #8C0000;"/>
<line x1="751.17" y1="547.76" x2="751.17" y2="171.82" style="stroke-width: 0.75;stroke: #8C0000;"/>
<line x1="758.09" y1="547.76" x2="758.09" y2="171.82" style="stroke-width: 0.75;stroke: #8C0000;"/>
<line x1="765.02" y1="547.76" x2="765.02" y2="124.83" style="stroke-width: 0.75;stroke: #8C0000;"/>
<line x1="771.94" y1="547.76" x2="771.94" y2="77.84" style="stroke-width: 0.75;stroke: #8C0000;"/>
</g><g clip-path="url(#c2)">
<line x1="86.46" y1="566.56" x2="771.94" y2="566.56" style="stroke-width: 0.75;"/>
<line x1="86.46" y1="566.56" x2="86.46" y2="573.76" style="stroke-width: 0.75;"/>
<line x1="223.56" y1="566.56" x2="223.56" y2="573.76" style="stroke-width: 0.75;"/>
<line x1="360.65" y1="566.56" x2="360.65" y2="573.76" style="stroke-width: 0.75;"/>
<line x1="497.75" y1="566.56" x2="497.75" y2="573.76" style="stroke-width: 0.75;"/>
<line x1="634.84" y1="566.56" x2="634.84" y2="573.76" style="stroke-width: 0.75;"/>
<line x1="771.94" y1="566.56" x2="771.94" y2="573.76" style="stroke-width: 0.75;"/>
<g><text x="86.46" y="592.48" text-anchor="middle" style="font-family: Arial;font-size: 12.00px;" textLength="16.68px" lengthAdjust="spacingAndGlyphs">0.0</text></g>
<g><text x="223.56" y="592.48" text-anchor="middle" style="font-family: Arial;font-size: 12.00px;" textLength="16.68px" lengthAdjust="spacingAndGlyphs">0.2</text></g>
<g><text x="360.65" y="592.48" text-anchor="middle" style="font-family: Arial;font-size: 12.00px;" textLength="16.68px" lengthAdjust="spacingAndGlyphs">0.4</text></g>
<g><text x="497.75" y="592.48" text-anchor="middle" style="font-family: Arial;font-size: 12.00px;" textLength="16.68px" lengthAdjust="spacingAndGlyphs">0.6</text></g>
<g><text x="634.84" y="592.48" text-anchor="middle" style="font-family: Arial;font-size: 12.00px;" textLength="16.68px" lengthAdjust="spacingAndGlyphs">0.8</text></g>
<g><text x="771.94" y="592.48" text-anchor="middle" style="font-family: Arial;font-size: 12.00px;" textLength="16.68px" lengthAdjust="spacingAndGlyphs">1.0</text></g>
<line x1="59.04" y1="547.76" x2="59.04" y2="77.84" style="stroke-width: 0.75;"/>
<line x1="59.04" y1="547.76" x2="51.84" y2="547.76" style="stroke-width: 0.75;"/>
<line x1="59.04" y1="453.78" x2="51.84" y2="453.78" style="stroke-width: 0.75;"/>
<line x1="59.04" y1="359.79" x2="51.84" y2="359.79" style="stroke-width: 0.75;"/>
<line x1="59.04" y1="265.81" x2="51.84" y2="265.81" style="stroke-width: 0.75;"/>
<line x1="59.04" y1="171.82" x2="51.84" y2="171.82" style="stroke-width: 0.75;"/>
<line x1="59.04" y1="77.84" x2="51.84" y2="77.84" style="stroke-width: 0.75;"/>
<g><text transform="translate(41.76,547.76) rotate(-90.00)" text-anchor="middle" style="font-family: Arial;font-size: 12.00px;" textLength="6.67px" lengthAdjust="spacingAndGlyphs">0</text></g>
<g><text transform="translate(41.76,453.78) rotate(-90.00)" text-anchor="middle" style="font-family: Arial;font-size: 12.00px;" textLength="6.67px" lengthAdjust="spacingAndGlyphs">2</text></g>
<g><text transform="translate(41.76,359.79) rotate(-90.00)" text-anchor="middle" style="font-family: Arial;font-size: 12.00px;" textLength="6.67px" lengthAdjust="spacingAndGlyphs">4</text></g>
<g><text transform="translate(41.76,265.81) rotate(-90.00)" text-anchor="middle" style="font-family: Arial;font-size: 12.00px;" textLength="6.67px" lengthAdjust="spacingAndGlyphs">6</text></g>
<g><text transform="translate(41.76,171.82) rotate(-90.00)" text-anchor="middle" style="font-family: Arial;font-size: 12.00px;" textLength="6.67px" lengthAdjust="spacingAndGlyphs">8</text></g>
<g><text transform="translate(41.76,77.84) rotate(-90.00)" text-anchor="middle" style="font-family: Arial;font-size: 12.00px;" textLength="13.35px" lengthAdjust="spacingAndGlyphs">10</text></g>
<polygon points="59.04,566.56 799.36,566.56 799.36,59.04 59.04,59.04" style="stroke-width: 0.75;" />
<g><text x="429.20" y="34.70" text-anchor="middle" style="font-family: Arial;font-size: 14.40px;font-weight: bold;" textLength="51.98px" lengthAdjust="spacingAndGlyphs">分位数函数</text></g>
<g><text x="429.20" y="621.28" text-anchor="middle" style="font-family: Arial;font-size: 12.00px;" textLength="120.41px" lengthAdjust="spacingAndGlyphs">seq(0, 1, length = 100)</text></g>
<g><text transform="translate(12.96,312.80) rotate(-90.00)" text-anchor="middle" style="font-family: Arial;font-size: 12.00px;" textLength="211.13px" lengthAdjust="spacingAndGlyphs">qbinom(seq(0, 1, length = 100), 10, 0.5)</text></g>
</g>
</svg>