<svg xmlns="http://www.w3.org/2000/svg" xmlns:xlink="http://www.w3.org/1999/xlink" class="httpgd" width="1037.00" height="800.00" viewBox="0 0 829.60 640.00">
<defs>
  <style type='text/css'><![CDATA[
    .httpgd line, .httpgd polyline, .httpgd polygon, .httpgd path, .httpgd rect, .httpgd circle {
      fill: none;
      stroke: #000000;
      stroke-linecap: round;
      stroke-linejoin: round;
      stroke-miterlimit: 10.00;
    }
  ]]></style>
<clipPath id="c0"><rect x="0.00" y="0.00" width="829.60" height="640.00"/></clipPath>
<clipPath id="c1"><rect x="59.04" y="59.04" width="740.32" height="507.52"/></clipPath>
<clipPath id="c2"><rect x="0.00" y="0.00" width="829.60" height="640.00"/></clipPath>
</defs>
<rect width="100%" height="100%" style="stroke: none;fill: #FFFFFF;"/>
<g clip-path="url(#c0)">
</g><g clip-path="url(#c1)">
<circle cx="86.46" cy="547.76" r="2.70" style="stroke-width: 0.75;stroke: #8C0000;"/>
<circle cx="93.38" cy="547.76" r="2.70" style="stroke-width: 0.75;stroke: #8C0000;"/>
<circle cx="100.31" cy="547.76" r="2.70" style="stroke-width: 0.75;stroke: #8C0000;"/>
<circle cx="107.23" cy="547.76" r="2.70" style="stroke-width: 0.75;stroke: #8C0000;"/>
<circle cx="114.16" cy="547.76" r="2.70" style="stroke-width: 0.75;stroke: #8C0000;"/>
<circle cx="121.08" cy="480.63" r="2.70" style="stroke-width: 0.75;stroke: #8C0000;"/>
<circle cx="128.00" cy="480.63" r="2.70" style="stroke-width: 0.75;stroke: #8C0000;"/>
<circle cx="134.93" cy="480.63" r="2.70" style="stroke-width: 0.75;stroke: #8C0000;"/>
<circle cx="141.85" cy="480.63" r="2.70" style="stroke-width: 0.75;stroke: #8C0000;"/>
<circle cx="148.78" cy="413.50" r="2.70" style="stroke-width: 0.75;stroke: #8C0000;"/>
<circle cx="155.70" cy="413.50" r="2.70" style="stroke-width: 0.75;stroke: #8C0000;"/>
<circle cx="162.62" cy="413.50" r="2.70" style="stroke-width: 0.75;stroke: #8C0000;"/>
<circle cx="169.55" cy="413.50" r="2.70" style="stroke-width: 0.75;stroke: #8C0000;"/>
<circle cx="176.47" cy="413.50" r="2.70" style="stroke-width: 0.75;stroke: #8C0000;"/>
<circle cx="183.40" cy="413.50" r="2.70" style="stroke-width: 0.75;stroke: #8C0000;"/>
<circle cx="190.32" cy="413.50" r="2.70" style="stroke-width: 0.75;stroke: #8C0000;"/>
<circle cx="197.24" cy="413.50" r="2.70" style="stroke-width: 0.75;stroke: #8C0000;"/>
<circle cx="204.17" cy="413.50" r="2.70" style="stroke-width: 0.75;stroke: #8C0000;"/>
<circle cx="211.09" cy="413.50" r="2.70" style="stroke-width: 0.75;stroke: #8C0000;"/>
<circle cx="218.02" cy="413.50" r="2.70" style="stroke-width: 0.75;stroke: #8C0000;"/>
<circle cx="224.94" cy="413.50" r="2.70" style="stroke-width: 0.75;stroke: #8C0000;"/>
<circle cx="231.86" cy="413.50" r="2.70" style="stroke-width: 0.75;stroke: #8C0000;"/>
<circle cx="238.79" cy="413.50" r="2.70" style="stroke-width: 0.75;stroke: #8C0000;"/>
<circle cx="245.71" cy="413.50" r="2.70" style="stroke-width: 0.75;stroke: #8C0000;"/>
<circle cx="252.64" cy="413.50" r="2.70" style="stroke-width: 0.75;stroke: #8C0000;"/>
<circle cx="259.56" cy="413.50" r="2.70" style="stroke-width: 0.75;stroke: #8C0000;"/>
<circle cx="266.48" cy="413.50" r="2.70" style="stroke-width: 0.75;stroke: #8C0000;"/>
<circle cx="273.41" cy="413.50" r="2.70" style="stroke-width: 0.75;stroke: #8C0000;"/>
<circle cx="280.33" cy="413.50" r="2.70" style="stroke-width: 0.75;stroke: #8C0000;"/>
<circle cx="287.26" cy="413.50" r="2.70" style="stroke-width: 0.75;stroke: #8C0000;"/>
<circle cx="294.18" cy="413.50" r="2.70" style="stroke-width: 0.75;stroke: #8C0000;"/>
<circle cx="301.10" cy="346.37" r="2.70" style="stroke-width: 0.75;stroke: #8C0000;"/>
<circle cx="308.03" cy="346.37" r="2.70" style="stroke-width: 0.75;stroke: #8C0000;"/>
<circle cx="314.95" cy="346.37" r="2.70" style="stroke-width: 0.75;stroke: #8C0000;"/>
<circle cx="321.88" cy="346.37" r="2.70" style="stroke-width: 0.75;stroke: #8C0000;"/>
<circle cx="328.80" cy="346.37" r="2.70" style="stroke-width: 0.75;stroke: #8C0000;"/>
<circle cx="335.73" cy="346.37" r="2.70" style="stroke-width: 0.75;stroke: #8C0000;"/>
<circle cx="342.65" cy="346.37" r="2.70" style="stroke-width: 0.75;stroke: #8C0000;"/>
<circle cx="349.57" cy="346.37" r="2.70" style="stroke-width: 0.75;stroke: #8C0000;"/>
<circle cx="356.50" cy="346.37" r="2.70" style="stroke-width: 0.75;stroke: #8C0000;"/>
<circle cx="363.42" cy="346.37" r="2.70" style="stroke-width: 0.75;stroke: #8C0000;"/>
<circle cx="370.35" cy="346.37" r="2.70" style="stroke-width: 0.75;stroke: #8C0000;"/>
<circle cx="377.27" cy="346.37" r="2.70" style="stroke-width: 0.75;stroke: #8C0000;"/>
<circle cx="384.19" cy="346.37" r="2.70" style="stroke-width: 0.75;stroke: #8C0000;"/>
<circle cx="391.12" cy="346.37" r="2.70" style="stroke-width: 0.75;stroke: #8C0000;"/>
<circle cx="398.04" cy="346.37" r="2.70" style="stroke-width: 0.75;stroke: #8C0000;"/>
<circle cx="404.97" cy="346.37" r="2.70" style="stroke-width: 0.75;stroke: #8C0000;"/>
<circle cx="411.89" cy="346.37" r="2.70" style="stroke-width: 0.75;stroke: #8C0000;"/>
<circle cx="418.81" cy="346.37" r="2.70" style="stroke-width: 0.75;stroke: #8C0000;"/>
<circle cx="425.74" cy="346.37" r="2.70" style="stroke-width: 0.75;stroke: #8C0000;"/>
<circle cx="432.66" cy="346.37" r="2.70" style="stroke-width: 0.75;stroke: #8C0000;"/>
<circle cx="439.59" cy="346.37" r="2.70" style="stroke-width: 0.75;stroke: #8C0000;"/>
<circle cx="446.51" cy="346.37" r="2.70" style="stroke-width: 0.75;stroke: #8C0000;"/>
<circle cx="453.43" cy="346.37" r="2.70" style="stroke-width: 0.75;stroke: #8C0000;"/>
<circle cx="460.36" cy="346.37" r="2.70" style="stroke-width: 0.75;stroke: #8C0000;"/>
<circle cx="467.28" cy="346.37" r="2.70" style="stroke-width: 0.75;stroke: #8C0000;"/>
<circle cx="474.21" cy="346.37" r="2.70" style="stroke-width: 0.75;stroke: #8C0000;"/>
<circle cx="481.13" cy="346.37" r="2.70" style="stroke-width: 0.75;stroke: #8C0000;"/>
<circle cx="488.05" cy="346.37" r="2.70" style="stroke-width: 0.75;stroke: #8C0000;"/>
<circle cx="494.98" cy="346.37" r="2.70" style="stroke-width: 0.75;stroke: #8C0000;"/>
<circle cx="501.90" cy="346.37" r="2.70" style="stroke-width: 0.75;stroke: #8C0000;"/>
<circle cx="508.83" cy="346.37" r="2.70" style="stroke-width: 0.75;stroke: #8C0000;"/>
<circle cx="515.75" cy="279.23" r="2.70" style="stroke-width: 0.75;stroke: #8C0000;"/>
<circle cx="522.67" cy="279.23" r="2.70" style="stroke-width: 0.75;stroke: #8C0000;"/>
<circle cx="529.60" cy="279.23" r="2.70" style="stroke-width: 0.75;stroke: #8C0000;"/>
<circle cx="536.52" cy="279.23" r="2.70" style="stroke-width: 0.75;stroke: #8C0000;"/>
<circle cx="543.45" cy="279.23" r="2.70" style="stroke-width: 0.75;stroke: #8C0000;"/>
<circle cx="550.37" cy="279.23" r="2.70" style="stroke-width: 0.75;stroke: #8C0000;"/>
<circle cx="557.30" cy="279.23" r="2.70" style="stroke-width: 0.75;stroke: #8C0000;"/>
<circle cx="564.22" cy="279.23" r="2.70" style="stroke-width: 0.75;stroke: #8C0000;"/>
<circle cx="571.14" cy="279.23" r="2.70" style="stroke-width: 0.75;stroke: #8C0000;"/>
<circle cx="578.07" cy="279.23" r="2.70" style="stroke-width: 0.75;stroke: #8C0000;"/>
<circle cx="584.99" cy="279.23" r="2.70" style="stroke-width: 0.75;stroke: #8C0000;"/>
<circle cx="591.92" cy="279.23" r="2.70" style="stroke-width: 0.75;stroke: #8C0000;"/>
<circle cx="598.84" cy="279.23" r="2.70" style="stroke-width: 0.75;stroke: #8C0000;"/>
<circle cx="605.76" cy="279.23" r="2.70" style="stroke-width: 0.75;stroke: #8C0000;"/>
<circle cx="612.69" cy="279.23" r="2.70" style="stroke-width: 0.75;stroke: #8C0000;"/>
<circle cx="619.61" cy="279.23" r="2.70" style="stroke-width: 0.75;stroke: #8C0000;"/>
<circle cx="626.54" cy="279.23" r="2.70" style="stroke-width: 0.75;stroke: #8C0000;"/>
<circle cx="633.46" cy="279.23" r="2.70" style="stroke-width: 0.75;stroke: #8C0000;"/>
<circle cx="640.38" cy="279.23" r="2.70" style="stroke-width: 0.75;stroke: #8C0000;"/>
<circle cx="647.31" cy="279.23" r="2.70" style="stroke-width: 0.75;stroke: #8C0000;"/>
<circle cx="654.23" cy="279.23" r="2.70" style="stroke-width: 0.75;stroke: #8C0000;"/>
<circle cx="661.16" cy="279.23" r="2.70" style="stroke-width: 0.75;stroke: #8C0000;"/>
<circle cx="668.08" cy="212.10" r="2.70" style="stroke-width: 0.75;stroke: #8C0000;"/>
<circle cx="675.00" cy="212.10" r="2.70" style="stroke-width: 0.75;stroke: #8C0000;"/>
<circle cx="681.93" cy="212.10" r="2.70" style="stroke-width: 0.75;stroke: #8C0000;"/>
<circle cx="688.85" cy="212.10" r="2.70" style="stroke-width: 0.75;stroke: #8C0000;"/>
<circle cx="695.78" cy="212.10" r="2.70" style="stroke-width: 0.75;stroke: #8C0000;"/>
<circle cx="702.70" cy="212.10" r="2.70" style="stroke-width: 0.75;stroke: #8C0000;"/>
<circle cx="709.62" cy="212.10" r="2.70" style="stroke-width: 0.75;stroke: #8C0000;"/>
<circle cx="716.55" cy="212.10" r="2.70" style="stroke-width: 0.75;stroke: #8C0000;"/>
<circle cx="723.47" cy="212.10" r="2.70" style="stroke-width: 0.75;stroke: #8C0000;"/>
<circle cx="730.40" cy="212.10" r="2.70" style="stroke-width: 0.75;stroke: #8C0000;"/>
<circle cx="737.32" cy="212.10" r="2.70" style="stroke-width: 0.75;stroke: #8C0000;"/>
<circle cx="744.24" cy="144.97" r="2.70" style="stroke-width: 0.75;stroke: #8C0000;"/>
<circle cx="751.17" cy="144.97" r="2.70" style="stroke-width: 0.75;stroke: #8C0000;"/>
<circle cx="758.09" cy="144.97" r="2.70" style="stroke-width: 0.75;stroke: #8C0000;"/>
<circle cx="765.02" cy="144.97" r="2.70" style="stroke-width: 0.75;stroke: #8C0000;"/>
<circle cx="771.94" cy="77.84" r="2.70" style="stroke-width: 0.75;stroke: #8C0000;"/>
</g><g clip-path="url(#c2)">
<line x1="79.54" y1="566.56" x2="771.94" y2="566.56" style="stroke-width: 0.75;"/>
<line x1="79.54" y1="566.56" x2="79.54" y2="573.76" style="stroke-width: 0.75;"/>
<line x1="218.02" y1="566.56" x2="218.02" y2="573.76" style="stroke-width: 0.75;"/>
<line x1="356.50" y1="566.56" x2="356.50" y2="573.76" style="stroke-width: 0.75;"/>
<line x1="494.98" y1="566.56" x2="494.98" y2="573.76" style="stroke-width: 0.75;"/>
<line x1="633.46" y1="566.56" x2="633.46" y2="573.76" style="stroke-width: 0.75;"/>
<line x1="771.94" y1="566.56" x2="771.94" y2="573.76" style="stroke-width: 0.75;"/>
<g><text x="79.54" y="592.48" text-anchor="middle" style="font-family: Arial;font-size: 12.00px;" textLength="6.67px" lengthAdjust="spacingAndGlyphs">0</text></g>
<g><text x="218.02" y="592.48" text-anchor="middle" style="font-family: Arial;font-size: 12.00px;" textLength="13.35px" lengthAdjust="spacingAndGlyphs">20</text></g>
<g><text x="356.50" y="592.48" text-anchor="middle" style="font-family: Arial;font-size: 12.00px;" textLength="13.35px" lengthAdjust="spacingAndGlyphs">40</text></g>
<g><text x="494.98" y="592.48" text-anchor="middle" style="font-family: Arial;font-size: 12.00px;" textLength="13.35px" lengthAdjust="spacingAndGlyphs">60</text></g>
<g><text x="633.46" y="592.48" text-anchor="middle" style="font-family: Arial;font-size: 12.00px;" textLength="13.35px" lengthAdjust="spacingAndGlyphs">80</text></g>
<g><text x="771.94" y="592.48" text-anchor="middle" style="font-family: Arial;font-size: 12.00px;" textLength="20.02px" lengthAdjust="spacingAndGlyphs">100</text></g>
<line x1="59.04" y1="547.76" x2="59.04" y2="77.84" style="stroke-width: 0.75;"/>
<line x1="59.04" y1="547.76" x2="51.84" y2="547.76" style="stroke-width: 0.75;"/>
<line x1="59.04" y1="480.63" x2="51.84" y2="480.63" style="stroke-width: 0.75;"/>
<line x1="59.04" y1="413.50" x2="51.84" y2="413.50" style="stroke-width: 0.75;"/>
<line x1="59.04" y1="346.37" x2="51.84" y2="346.37" style="stroke-width: 0.75;"/>
<line x1="59.04" y1="279.23" x2="51.84" y2="279.23" style="stroke-width: 0.75;"/>
<line x1="59.04" y1="212.10" x2="51.84" y2="212.10" style="stroke-width: 0.75;"/>
<line x1="59.04" y1="144.97" x2="51.84" y2="144.97" style="stroke-width: 0.75;"/>
<line x1="59.04" y1="77.84" x2="51.84" y2="77.84" style="stroke-width: 0.75;"/>
<g><text transform="translate(41.76,547.76) rotate(-90.00)" text-anchor="middle" style="font-family: Arial;font-size: 12.00px;" textLength="6.67px" lengthAdjust="spacingAndGlyphs">2</text></g>
<g><text transform="translate(41.76,480.63) rotate(-90.00)" text-anchor="middle" style="font-family: Arial;font-size: 12.00px;" textLength="6.67px" lengthAdjust="spacingAndGlyphs">3</text></g>
<g><text transform="translate(41.76,413.50) rotate(-90.00)" text-anchor="middle" style="font-family: Arial;font-size: 12.00px;" textLength="6.67px" lengthAdjust="spacingAndGlyphs">4</text></g>
<g><text transform="translate(41.76,346.37) rotate(-90.00)" text-anchor="middle" style="font-family: Arial;font-size: 12.00px;" textLength="6.67px" lengthAdjust="spacingAndGlyphs">5</text></g>
<g><text transform="translate(41.76,279.23) rotate(-90.00)" text-anchor="middle" style="font-family: Arial;font-size: 12.00px;" textLength="6.67px" lengthAdjust="spacingAndGlyphs">6</text></g>
<g><text transform="translate(41.76,212.10) rotate(-90.00)" text-anchor="middle" style="font-family: Arial;font-size: 12.00px;" textLength="6.67px" lengthAdjust="spacingAndGlyphs">7</text></g>
<g><text transform="translate(41.76,144.97) rotate(-90.00)" text-anchor="middle" style="font-family: Arial;font-size: 12.00px;" textLength="6.67px" lengthAdjust="spacingAndGlyphs">8</text></g>
<g><text transform="translate(41.76,77.84) rotate(-90.00)" text-anchor="middle" style="font-family: Arial;font-size: 12.00px;" textLength="6.67px" lengthAdjust="spacingAndGlyphs">9</text></g>
<polygon points="59.04,566.56 799.36,566.56 799.36,59.04 59.04,59.04" style="stroke-width: 0.75;" />
<g><text x="429.20" y="34.70" text-anchor="middle" style="font-family: Arial;font-size: 14.40px;font-weight: bold;" textLength="72.78px" lengthAdjust="spacingAndGlyphs">随机数生成函数</text></g>
<g><text x="429.20" y="621.28" text-anchor="middle" style="font-family: Arial;font-size: 12.00px;" textLength="30.03px" lengthAdjust="spacingAndGlyphs">1:100</text></g>
<g><text transform="translate(12.96,312.80) rotate(-90.00)" text-anchor="middle" style="font-family: Arial;font-size: 12.00px;" textLength="33.99px" lengthAdjust="spacingAndGlyphs">sort(x)</text></g>
</g>
</svg>