<svg xmlns="http://www.w3.org/2000/svg" xmlns:xlink="http://www.w3.org/1999/xlink" class="httpgd" width="1375.00" height="1249.00" viewBox="0 0 1100.00 999.20">
<defs>
  <style type='text/css'><![CDATA[
    .httpgd line, .httpgd polyline, .httpgd polygon, .httpgd path, .httpgd rect, .httpgd circle {
      fill: none;
      stroke: #000000;
      stroke-linecap: round;
      stroke-linejoin: round;
      stroke-miterlimit: 10.00;
    }
  ]]></style>
<clipPath id="c0"><rect x="0.00" y="0.00" width="1100.00" height="999.20"/></clipPath>
<clipPath id="c1"><rect x="59.04" y="59.04" width="1010.72" height="866.72"/></clipPath>
<clipPath id="c2"><rect x="0.00" y="0.00" width="1100.00" height="999.20"/></clipPath>
<clipPath id="c3"><rect x="59.04" y="59.04" width="1010.72" height="866.72"/></clipPath>
</defs>
<rect width="100%" height="100%" style="stroke: none;fill: #FFFFFF;"/>
<g clip-path="url(#c0)">
</g><g clip-path="url(#c2)">
<line x1="123.68" y1="925.76" x2="935.32" y2="925.76" style="stroke-width: 0.75;"/>
<line x1="123.68" y1="925.76" x2="123.68" y2="932.96" style="stroke-width: 0.75;"/>
<line x1="286.01" y1="925.76" x2="286.01" y2="932.96" style="stroke-width: 0.75;"/>
<line x1="448.34" y1="925.76" x2="448.34" y2="932.96" style="stroke-width: 0.75;"/>
<line x1="610.66" y1="925.76" x2="610.66" y2="932.96" style="stroke-width: 0.75;"/>
<line x1="772.99" y1="925.76" x2="772.99" y2="932.96" style="stroke-width: 0.75;"/>
<line x1="935.32" y1="925.76" x2="935.32" y2="932.96" style="stroke-width: 0.75;"/>
<g><text x="123.68" y="951.68" text-anchor="middle" style="font-family: Arial;font-size: 12.00px;" textLength="13.35px" lengthAdjust="spacingAndGlyphs">10</text></g>
<g><text x="286.01" y="951.68" text-anchor="middle" style="font-family: Arial;font-size: 12.00px;" textLength="13.35px" lengthAdjust="spacingAndGlyphs">12</text></g>
<g><text x="448.34" y="951.68" text-anchor="middle" style="font-family: Arial;font-size: 12.00px;" textLength="13.35px" lengthAdjust="spacingAndGlyphs">14</text></g>
<g><text x="610.66" y="951.68" text-anchor="middle" style="font-family: Arial;font-size: 12.00px;" textLength="13.35px" lengthAdjust="spacingAndGlyphs">16</text></g>
<g><text x="772.99" y="951.68" text-anchor="middle" style="font-family: Arial;font-size: 12.00px;" textLength="13.35px" lengthAdjust="spacingAndGlyphs">18</text></g>
<g><text x="935.32" y="951.68" text-anchor="middle" style="font-family: Arial;font-size: 12.00px;" textLength="13.35px" lengthAdjust="spacingAndGlyphs">20</text></g>
<line x1="59.04" y1="893.66" x2="59.04" y2="91.14" style="stroke-width: 0.75;"/>
<line x1="59.04" y1="893.66" x2="51.84" y2="893.66" style="stroke-width: 0.75;"/>
<line x1="59.04" y1="733.16" x2="51.84" y2="733.16" style="stroke-width: 0.75;"/>
<line x1="59.04" y1="572.65" x2="51.84" y2="572.65" style="stroke-width: 0.75;"/>
<line x1="59.04" y1="412.15" x2="51.84" y2="412.15" style="stroke-width: 0.75;"/>
<line x1="59.04" y1="251.64" x2="51.84" y2="251.64" style="stroke-width: 0.75;"/>
<line x1="59.04" y1="91.14" x2="51.84" y2="91.14" style="stroke-width: 0.75;"/>
<g><text transform="translate(41.76,893.66) rotate(-90.00)" text-anchor="middle" style="font-family: Arial;font-size: 12.00px;" textLength="16.68px" lengthAdjust="spacingAndGlyphs">0.0</text></g>
<g><text transform="translate(41.76,733.16) rotate(-90.00)" text-anchor="middle" style="font-family: Arial;font-size: 12.00px;" textLength="16.68px" lengthAdjust="spacingAndGlyphs">0.2</text></g>
<g><text transform="translate(41.76,572.65) rotate(-90.00)" text-anchor="middle" style="font-family: Arial;font-size: 12.00px;" textLength="16.68px" lengthAdjust="spacingAndGlyphs">0.4</text></g>
<g><text transform="translate(41.76,412.15) rotate(-90.00)" text-anchor="middle" style="font-family: Arial;font-size: 12.00px;" textLength="16.68px" lengthAdjust="spacingAndGlyphs">0.6</text></g>
<g><text transform="translate(41.76,251.64) rotate(-90.00)" text-anchor="middle" style="font-family: Arial;font-size: 12.00px;" textLength="16.68px" lengthAdjust="spacingAndGlyphs">0.8</text></g>
<g><text transform="translate(41.76,91.14) rotate(-90.00)" text-anchor="middle" style="font-family: Arial;font-size: 12.00px;" textLength="16.68px" lengthAdjust="spacingAndGlyphs">1.0</text></g>
<polygon points="59.04,925.76 1069.76,925.76 1069.76,59.04 59.04,59.04" style="stroke-width: 0.75;" />
<g><text x="564.40" y="34.70" text-anchor="middle" style="font-family: Arial;font-size: 14.40px;font-weight: bold;" textLength="145.56px" lengthAdjust="spacingAndGlyphs">健康人血清锌含量经验分布函数</text></g>
<g><text x="564.40" y="980.48" text-anchor="middle" style="font-family: Arial;font-size: 12.00px;" textLength="86.01px" lengthAdjust="spacingAndGlyphs">血清锌含量/(μmol/L)</text></g>
<g><text transform="translate(12.96,492.40) rotate(-90.00)" text-anchor="middle" style="font-family: Arial;font-size: 12.00px;" textLength="30.41px" lengthAdjust="spacingAndGlyphs">累积概率</text></g>
</g><g clip-path="url(#c3)">
<line x1="31.93" y1="893.66" x2="161.02" y2="893.66" style="stroke-width: 0.75;"/>
<line x1="161.02" y1="840.16" x2="251.92" y2="840.16" style="stroke-width: 0.75;"/>
<line x1="251.92" y1="786.66" x2="255.17" y2="786.66" style="stroke-width: 0.75;"/>
<line x1="255.17" y1="733.16" x2="300.62" y2="733.16" style="stroke-width: 0.75;"/>
<line x1="300.62" y1="679.65" x2="501.90" y2="679.65" style="stroke-width: 0.75;"/>
<line x1="501.90" y1="626.15" x2="597.68" y2="626.15" style="stroke-width: 0.75;"/>
<line x1="597.68" y1="572.65" x2="598.49" y2="572.65" style="stroke-width: 0.75;"/>
<line x1="598.49" y1="519.15" x2="660.99" y2="519.15" style="stroke-width: 0.75;"/>
<line x1="660.99" y1="465.65" x2="679.65" y2="465.65" style="stroke-width: 0.75;"/>
<line x1="679.65" y1="412.15" x2="701.57" y2="412.15" style="stroke-width: 0.75;"/>
<line x1="701.57" y1="358.65" x2="715.36" y2="358.65" style="stroke-width: 0.75;"/>
<line x1="715.36" y1="305.15" x2="731.60" y2="305.15" style="stroke-width: 0.75;"/>
<line x1="731.60" y1="251.64" x2="803.83" y2="251.64" style="stroke-width: 0.75;"/>
<line x1="803.83" y1="198.14" x2="906.10" y2="198.14" style="stroke-width: 0.75;"/>
<line x1="906.10" y1="144.64" x2="967.78" y2="144.64" style="stroke-width: 0.75;"/>
<line x1="967.78" y1="91.14" x2="1096.87" y2="91.14" style="stroke-width: 0.75;"/>
<line x1="161.02" y1="893.66" x2="161.02" y2="840.16" style="stroke-width: 0.75;"/>
<line x1="251.92" y1="840.16" x2="251.92" y2="786.66" style="stroke-width: 0.75;"/>
<line x1="255.17" y1="786.66" x2="255.17" y2="733.16" style="stroke-width: 0.75;"/>
<line x1="300.62" y1="733.16" x2="300.62" y2="679.65" style="stroke-width: 0.75;"/>
<line x1="501.90" y1="679.65" x2="501.90" y2="626.15" style="stroke-width: 0.75;"/>
<line x1="597.68" y1="626.15" x2="597.68" y2="572.65" style="stroke-width: 0.75;"/>
<line x1="598.49" y1="572.65" x2="598.49" y2="519.15" style="stroke-width: 0.75;"/>
<line x1="660.99" y1="519.15" x2="660.99" y2="465.65" style="stroke-width: 0.75;"/>
<line x1="679.65" y1="465.65" x2="679.65" y2="412.15" style="stroke-width: 0.75;"/>
<line x1="701.57" y1="412.15" x2="701.57" y2="358.65" style="stroke-width: 0.75;"/>
<line x1="715.36" y1="358.65" x2="715.36" y2="305.15" style="stroke-width: 0.75;"/>
<line x1="731.60" y1="305.15" x2="731.60" y2="251.64" style="stroke-width: 0.75;"/>
<line x1="803.83" y1="251.64" x2="803.83" y2="198.14" style="stroke-width: 0.75;"/>
<line x1="906.10" y1="198.14" x2="906.10" y2="144.64" style="stroke-width: 0.75;"/>
<line x1="967.78" y1="144.64" x2="967.78" y2="91.14" style="stroke-width: 0.75;"/>
<line x1="59.04" y1="893.66" x2="1069.76" y2="893.66" style="stroke-width: 0.75;stroke: #B3B3B3; stroke-dasharray: 4.00, 4.00;"/>
<line x1="59.04" y1="91.14" x2="1069.76" y2="91.14" style="stroke-width: 0.75;stroke: #B3B3B3; stroke-dasharray: 4.00, 4.00;"/>
<polyline points="161.02,858.36 169.13,855.71 177.25,852.90 185.36,849.93 193.48,846.79 201.60,843.48 209.71,839.98 217.83,836.30 225.95,832.43 234.06,828.37 242.18,824.10 250.30,819.63 258.41,814.95 266.53,810.06 274.64,804.95 282.76,799.62 290.88,794.06 298.99,788.28 307.11,782.28 315.23,776.04 323.34,769.58 331.46,762.88 339.58,755.96 347.69,748.80 355.81,741.41 363.93,733.80 372.04,725.96 380.16,717.90 388.27,709.63 396.39,701.13 404.51,692.43 412.62,683.53 420.74,674.42 428.86,665.13 436.97,655.65 445.09,646.00 453.21,636.17 461.32,626.19 469.44,616.06 477.55,605.79 485.67,595.39 493.79,584.88 501.90,574.25 510.02,563.54 518.14,552.73 526.25,541.86 534.37,530.93 542.49,519.95 550.60,508.95 558.72,497.92 566.83,486.88 574.95,475.85 583.07,464.85 591.18,453.87 599.30,442.94 607.42,432.07 615.53,421.26 623.65,410.55 631.77,399.92 639.88,389.41 648.00,379.01 656.12,368.74 664.23,358.61 672.35,348.63 680.46,338.80 688.58,329.15 696.70,319.67 704.81,310.38 712.93,301.27 721.05,292.37 729.16,283.67 737.28,275.17 745.40,266.90 753.51,258.84 761.63,251.00 769.74,243.39 777.86,236.00 785.98,228.84 794.09,221.92 802.21,215.22 810.33,208.76 818.44,202.52 826.56,196.52 834.68,190.74 842.79,185.18 850.91,179.85 859.02,174.74 867.14,169.85 875.26,165.17 883.37,160.70 891.49,156.43 899.61,152.37 907.72,148.50 915.84,144.82 923.96,141.32 932.07,138.01 940.19,134.87 948.31,131.90 956.42,129.09 964.54,126.44" style="stroke-width: 0.75;stroke: #FF0000;"/>
<rect x="161.02" y="131.27" width="124.63" height="43.20" style="stroke-width: 0.75;fill: #FFFFFF;"/>
<line x1="171.82" y1="145.67" x2="193.42" y2="145.67" style="stroke-width: 0.75;"/>
<line x1="171.82" y1="160.07" x2="193.42" y2="160.07" style="stroke-width: 0.75;stroke: #FF0000;"/>
<g><text x="204.22" y="149.97" style="font-family: Arial;font-size: 12.00px;" textLength="45.62px" lengthAdjust="spacingAndGlyphs">经验分布函数</text></g>
<g><text x="204.22" y="164.37" style="font-family: Arial;font-size: 12.00px;" textLength="76.03px" lengthAdjust="spacingAndGlyphs">标准正态经验分布函数</text></g>
</g>
</svg>