<svg xmlns="http://www.w3.org/2000/svg" xmlns:xlink="http://www.w3.org/1999/xlink" class="httpgd" width="1375.00" height="1249.00" viewBox="0 0 1100.00 999.20">
<defs>
  <style type='text/css'><![CDATA[
    .httpgd line, .httpgd polyline, .httpgd polygon, .httpgd path, .httpgd rect, .httpgd circle {
      fill: none;
      stroke: #000000;
      stroke-linecap: round;
      stroke-linejoin: round;
      stroke-miterlimit: 10.00;
    }
  ]]></style>
<clipPath id="c0"><rect x="0.00" y="0.00" width="1100.00" height="999.20"/></clipPath>
<clipPath id="c1"><rect x="59.04" y="59.04" width="1010.72" height="866.72"/></clipPath>
<clipPath id="c2"><rect x="0.00" y="0.00" width="1100.00" height="999.20"/></clipPath>
<clipPath id="c3"><rect x="59.04" y="59.04" width="1010.72" height="866.72"/></clipPath>
</defs>
<rect width="100%" height="100%" style="stroke: none;fill: #FFFFFF;"/>
<g clip-path="url(#c0)">
</g><g clip-path="url(#c2)">
<line x1="331.13" y1="925.76" x2="884.56" y2="925.76" style="stroke-width: 0.75;"/>
<line x1="331.13" y1="925.76" x2="331.13" y2="932.96" style="stroke-width: 0.75;"/>
<line x1="607.84" y1="925.76" x2="607.84" y2="932.96" style="stroke-width: 0.75;"/>
<line x1="884.56" y1="925.76" x2="884.56" y2="932.96" style="stroke-width: 0.75;"/>
<g><text x="331.13" y="951.68" text-anchor="middle" style="font-family: Arial;font-size: 12.00px;" textLength="13.35px" lengthAdjust="spacingAndGlyphs">15</text></g>
<g><text x="607.84" y="951.68" text-anchor="middle" style="font-family: Arial;font-size: 12.00px;" textLength="13.35px" lengthAdjust="spacingAndGlyphs">20</text></g>
<g><text x="884.56" y="951.68" text-anchor="middle" style="font-family: Arial;font-size: 12.00px;" textLength="13.35px" lengthAdjust="spacingAndGlyphs">25</text></g>
<line x1="59.04" y1="893.66" x2="59.04" y2="91.14" style="stroke-width: 0.75;"/>
<line x1="59.04" y1="893.66" x2="51.84" y2="893.66" style="stroke-width: 0.75;"/>
<line x1="59.04" y1="733.16" x2="51.84" y2="733.16" style="stroke-width: 0.75;"/>
<line x1="59.04" y1="572.65" x2="51.84" y2="572.65" style="stroke-width: 0.75;"/>
<line x1="59.04" y1="412.15" x2="51.84" y2="412.15" style="stroke-width: 0.75;"/>
<line x1="59.04" y1="251.64" x2="51.84" y2="251.64" style="stroke-width: 0.75;"/>
<line x1="59.04" y1="91.14" x2="51.84" y2="91.14" style="stroke-width: 0.75;"/>
<g><text transform="translate(41.76,893.66) rotate(-90.00)" text-anchor="middle" style="font-family: Arial;font-size: 12.00px;" textLength="16.68px" lengthAdjust="spacingAndGlyphs">0.0</text></g>
<g><text transform="translate(41.76,733.16) rotate(-90.00)" text-anchor="middle" style="font-family: Arial;font-size: 12.00px;" textLength="16.68px" lengthAdjust="spacingAndGlyphs">0.2</text></g>
<g><text transform="translate(41.76,572.65) rotate(-90.00)" text-anchor="middle" style="font-family: Arial;font-size: 12.00px;" textLength="16.68px" lengthAdjust="spacingAndGlyphs">0.4</text></g>
<g><text transform="translate(41.76,412.15) rotate(-90.00)" text-anchor="middle" style="font-family: Arial;font-size: 12.00px;" textLength="16.68px" lengthAdjust="spacingAndGlyphs">0.6</text></g>
<g><text transform="translate(41.76,251.64) rotate(-90.00)" text-anchor="middle" style="font-family: Arial;font-size: 12.00px;" textLength="16.68px" lengthAdjust="spacingAndGlyphs">0.8</text></g>
<g><text transform="translate(41.76,91.14) rotate(-90.00)" text-anchor="middle" style="font-family: Arial;font-size: 12.00px;" textLength="16.68px" lengthAdjust="spacingAndGlyphs">1.0</text></g>
<polygon points="59.04,925.76 1069.76,925.76 1069.76,59.04 59.04,59.04" style="stroke-width: 0.75;" />
<g><text x="564.40" y="34.70" text-anchor="middle" style="font-family: Arial;font-size: 14.40px;font-weight: bold;" textLength="166.35px" lengthAdjust="spacingAndGlyphs">冠心病患者血清锌含量经验分布函数</text></g>
<g><text x="564.40" y="980.48" text-anchor="middle" style="font-family: Arial;font-size: 12.00px;" textLength="86.01px" lengthAdjust="spacingAndGlyphs">血清锌含量/(μmol/L)</text></g>
<g><text transform="translate(12.96,492.40) rotate(-90.00)" text-anchor="middle" style="font-family: Arial;font-size: 12.00px;" textLength="30.41px" lengthAdjust="spacingAndGlyphs">累积概率</text></g>
</g><g clip-path="url(#c3)">
<line x1="7.93" y1="893.66" x2="185.02" y2="893.66" style="stroke-width: 0.75;"/>
<line x1="185.02" y1="813.41" x2="360.46" y2="813.41" style="stroke-width: 0.75;"/>
<line x1="360.46" y1="733.16" x2="397.54" y2="733.16" style="stroke-width: 0.75;"/>
<line x1="397.54" y1="652.90" x2="549.73" y2="652.90" style="stroke-width: 0.75;"/>
<line x1="549.73" y1="572.65" x2="562.46" y2="572.65" style="stroke-width: 0.75;"/>
<line x1="562.46" y1="492.40" x2="654.89" y2="492.40" style="stroke-width: 0.75;"/>
<line x1="654.89" y1="412.15" x2="819.81" y2="412.15" style="stroke-width: 0.75;"/>
<line x1="819.81" y1="331.90" x2="839.73" y2="331.90" style="stroke-width: 0.75;"/>
<line x1="839.73" y1="251.64" x2="855.23" y2="251.64" style="stroke-width: 0.75;"/>
<line x1="855.23" y1="171.39" x2="943.78" y2="171.39" style="stroke-width: 0.75;"/>
<line x1="943.78" y1="91.14" x2="1120.87" y2="91.14" style="stroke-width: 0.75;"/>
<line x1="185.02" y1="893.66" x2="185.02" y2="813.41" style="stroke-width: 0.75;"/>
<line x1="360.46" y1="813.41" x2="360.46" y2="733.16" style="stroke-width: 0.75;"/>
<line x1="397.54" y1="733.16" x2="397.54" y2="652.90" style="stroke-width: 0.75;"/>
<line x1="549.73" y1="652.90" x2="549.73" y2="572.65" style="stroke-width: 0.75;"/>
<line x1="562.46" y1="572.65" x2="562.46" y2="492.40" style="stroke-width: 0.75;"/>
<line x1="654.89" y1="492.40" x2="654.89" y2="412.15" style="stroke-width: 0.75;"/>
<line x1="819.81" y1="412.15" x2="819.81" y2="331.90" style="stroke-width: 0.75;"/>
<line x1="839.73" y1="331.90" x2="839.73" y2="251.64" style="stroke-width: 0.75;"/>
<line x1="855.23" y1="251.64" x2="855.23" y2="171.39" style="stroke-width: 0.75;"/>
<line x1="943.78" y1="171.39" x2="943.78" y2="91.14" style="stroke-width: 0.75;"/>
<line x1="59.04" y1="893.66" x2="1069.76" y2="893.66" style="stroke-width: 0.75;stroke: #B3B3B3; stroke-dasharray: 4.00, 4.00;"/>
<line x1="59.04" y1="91.14" x2="1069.76" y2="91.14" style="stroke-width: 0.75;stroke: #B3B3B3; stroke-dasharray: 4.00, 4.00;"/>
<polyline points="185.02,858.89 190.56,857.00 196.09,855.04 201.63,852.99 207.16,850.85 212.69,848.63 218.23,846.31 223.76,843.91 229.30,841.40 234.83,838.81 240.37,836.11 245.90,833.32 251.43,830.42 256.97,827.41 262.50,824.31 268.04,821.09 273.57,817.76 279.11,814.33 284.64,810.78 290.17,807.11 295.71,803.33 301.24,799.44 306.78,795.43 312.31,791.30 317.85,787.05 323.38,782.67 328.92,778.18 334.45,773.57 339.98,768.84 345.52,763.98 351.05,759.01 356.59,753.91 362.12,748.69 367.66,743.35 373.19,737.89 378.72,732.32 384.26,726.62 389.79,720.81 395.33,714.88 400.86,708.84 406.40,702.68 411.93,696.41 417.46,690.04 423.00,683.56 428.53,676.97 434.07,670.29 439.60,663.50 445.14,656.62 450.67,649.64 456.20,642.57 461.74,635.42 467.27,628.19 472.81,620.87 478.34,613.48 483.88,606.02 489.41,598.48 494.94,590.89 500.48,583.23 506.01,575.52 511.55,567.76 517.08,559.96 522.62,552.11 528.15,544.22 533.68,536.30 539.22,528.36 544.75,520.39 550.29,512.41 555.82,504.41 561.36,496.40 566.89,488.40 572.42,480.39 577.96,472.39 583.49,464.41 589.03,456.44 594.56,448.50 600.10,440.58 605.63,432.69 611.16,424.84 616.70,417.04 622.23,409.28 627.77,401.57 633.30,393.91 638.84,386.32 644.37,378.78 649.91,371.32 655.44,363.93 660.97,356.61 666.51,349.38 672.04,342.23 677.58,335.16 683.11,328.18 688.65,321.30 694.18,314.51 699.71,307.83 705.25,301.24 710.78,294.76 716.32,288.39 721.85,282.12 727.39,275.96 732.92,269.92 738.45,263.99 743.99,258.18 749.52,252.48 755.06,246.91 760.59,241.45 766.13,236.11 771.66,230.89 777.19,225.79 782.73,220.82 788.26,215.96 793.80,211.23 799.33,206.62 804.87,202.13 810.40,197.75 815.93,193.50 821.47,189.37 827.00,185.36 832.54,181.47 838.07,177.69 843.61,174.02 849.14,170.47 854.67,167.04 860.21,163.71 865.74,160.49 871.28,157.39 876.81,154.38 882.35,151.48 887.88,148.69 893.41,145.99 898.95,143.40 904.48,140.89 910.02,138.49 915.55,136.17 921.09,133.95 926.62,131.81 932.15,129.76 937.69,127.80 943.22,125.91" style="stroke-width: 0.75;stroke: #FF0000;"/>
<rect x="185.02" y="131.27" width="209.70" height="49.36" style="stroke-width: 0.75;fill: #FFFFFF;"/>
<line x1="203.19" y1="147.72" x2="239.54" y2="147.72" style="stroke-width: 0.75;"/>
<line x1="203.19" y1="164.17" x2="239.54" y2="164.17" style="stroke-width: 0.75;stroke: #FF0000;"/>
<g><text x="257.71" y="152.03" style="font-family: Arial;font-size: 12.00px;" textLength="45.62px" lengthAdjust="spacingAndGlyphs">经验分布函数</text></g>
<g><text x="257.71" y="168.48" style="font-family: Arial;font-size: 12.00px;" textLength="76.03px" lengthAdjust="spacingAndGlyphs">标准正态经验分布函数</text></g>
</g>
</svg>